G04*
G04 #@! TF.GenerationSoftware,Altium Limited,Altium Designer,22.4.2 (48)*
G04*
G04 Layer_Color=65535*
%FSLAX25Y25*%
%MOIN*%
G70*
G04*
G04 #@! TF.SameCoordinates,0592E0CC-BA3F-4339-BE53-95EDDC47ECB4*
G04*
G04*
G04 #@! TF.FilePolarity,Positive*
G04*
G01*
G75*
%ADD10C,0.02362*%
%ADD11C,0.00984*%
%ADD12C,0.00787*%
D10*
X53543Y26575D02*
G03*
X53543Y26575I-1181J0D01*
G01*
D11*
X63091Y22835D02*
G03*
X63091Y22835I-492J0D01*
G01*
D12*
X56496Y18898D02*
X68307D01*
Y12992D02*
Y18898D01*
X56496Y12992D02*
X68307D01*
X56496D02*
Y18898D01*
X41339Y52165D02*
X56299D01*
X41339Y22638D02*
X56299D01*
X41339D02*
Y52165D01*
X56299Y22638D02*
Y52165D01*
X79429Y19291D02*
X82382Y17323D01*
X79429Y15354D02*
Y19291D01*
Y15354D02*
X82382Y17323D01*
X76811Y62500D02*
Y72342D01*
X16811Y2461D02*
Y12303D01*
X86811Y2402D02*
Y12402D01*
X6811Y2402D02*
X86811D01*
X6811D02*
Y12402D01*
X86811D01*
X6811Y62402D02*
Y72402D01*
X86811D01*
Y62402D02*
Y72402D01*
X6811Y62402D02*
X86811D01*
X10433Y22638D02*
X10827D01*
X10433Y52165D02*
X10827D01*
X197D02*
X1378D01*
X197Y22638D02*
X1378D01*
X197D02*
Y52165D01*
X17126Y29134D02*
Y30709D01*
Y44094D02*
Y45669D01*
X26476Y55216D02*
X28051D01*
X27264D01*
Y59939D01*
X26476Y59152D01*
X30412D02*
X31199Y59939D01*
X32774D01*
X33561Y59152D01*
Y58365D01*
X32774Y57578D01*
X33561Y56791D01*
Y56004D01*
X32774Y55216D01*
X31199D01*
X30412Y56004D01*
Y56791D01*
X31199Y57578D01*
X30412Y58365D01*
Y59152D01*
X31199Y57578D02*
X32774D01*
X38284Y59939D02*
X35135D01*
Y57578D01*
X36709D01*
X35135D01*
Y55216D01*
X39858D02*
X41432D01*
X40645D01*
Y59939D01*
X39858Y59152D01*
X46155Y55216D02*
Y59939D01*
X43794Y57578D01*
X46942D01*
X48516Y59939D02*
Y55216D01*
Y56791D01*
X51665Y59939D01*
X49304Y57578D01*
X51665Y55216D01*
X56388Y59939D02*
X53239D01*
Y57578D01*
X54814Y58365D01*
X55601D01*
X56388Y57578D01*
Y56004D01*
X55601Y55216D01*
X54027D01*
X53239Y56004D01*
X57962Y59152D02*
X58749Y59939D01*
X60324D01*
X61111Y59152D01*
Y56004D01*
X60324Y55216D01*
X58749D01*
X57962Y56004D01*
Y59152D01*
X22048Y23623D02*
X25984D01*
X26771Y24410D01*
Y25984D01*
X25984Y26772D01*
X22048D01*
X26771Y28346D02*
Y29920D01*
Y29133D01*
X22048D01*
X22835Y28346D01*
X49213Y17815D02*
X48426Y18602D01*
X46851D01*
X46064Y17815D01*
Y14666D01*
X46851Y13879D01*
X48426D01*
X49213Y14666D01*
X53936Y13879D02*
X50787D01*
X53936Y17027D01*
Y17815D01*
X53149Y18602D01*
X51574D01*
X50787Y17815D01*
M02*
