G04*
G04 #@! TF.GenerationSoftware,Altium Limited,Altium Designer,22.4.2 (48)*
G04*
G04 Layer_Color=255*
%FSLAX25Y25*%
%MOIN*%
G70*
G04*
G04 #@! TF.SameCoordinates,0592E0CC-BA3F-4339-BE53-95EDDC47ECB4*
G04*
G04*
G04 #@! TF.FilePolarity,Positive*
G04*
G01*
G75*
%ADD13R,0.03150X0.03740*%
%ADD14O,0.09449X0.01772*%
%ADD15R,0.07480X0.07087*%
%ADD16R,0.05315X0.01575*%
%ADD17R,0.06299X0.08268*%
%ADD18R,0.07480X0.07480*%
%ADD28R,0.05906X0.05906*%
%ADD29C,0.05906*%
%ADD30R,0.05906X0.05906*%
D13*
X65354Y15945D02*
D03*
X59449D02*
D03*
D14*
X35039Y48917D02*
D03*
Y46358D02*
D03*
Y43799D02*
D03*
Y41240D02*
D03*
Y38681D02*
D03*
Y36122D02*
D03*
Y33563D02*
D03*
Y31004D02*
D03*
Y28445D02*
D03*
Y25886D02*
D03*
X62598Y48917D02*
D03*
Y46358D02*
D03*
Y43799D02*
D03*
Y41240D02*
D03*
Y38681D02*
D03*
Y36122D02*
D03*
Y33563D02*
D03*
Y31004D02*
D03*
Y28445D02*
D03*
Y25886D02*
D03*
D15*
X5906Y21654D02*
D03*
Y53150D02*
D03*
D16*
X16535Y39961D02*
D03*
Y32283D02*
D03*
Y34843D02*
D03*
Y37402D02*
D03*
Y42520D02*
D03*
D17*
X14764Y24213D02*
D03*
Y50591D02*
D03*
D18*
X5906Y42126D02*
D03*
Y32677D02*
D03*
D28*
X87087Y17559D02*
D03*
D29*
Y27559D02*
D03*
Y37559D02*
D03*
Y47559D02*
D03*
Y57559D02*
D03*
X21811Y7402D02*
D03*
X31811D02*
D03*
X41811D02*
D03*
X51811D02*
D03*
X61811D02*
D03*
X71811D02*
D03*
X81811D02*
D03*
X71811Y67402D02*
D03*
X61811D02*
D03*
X51811D02*
D03*
X41811D02*
D03*
X31811D02*
D03*
X21811D02*
D03*
X11811D02*
D03*
D30*
Y7402D02*
D03*
X81811Y67402D02*
D03*
M02*
