G04*
G04 #@! TF.GenerationSoftware,Altium Limited,Altium Designer,22.4.2 (48)*
G04*
G04 Layer_Color=32896*
%FSLAX25Y25*%
%MOIN*%
G70*
G04*
G04 #@! TF.SameCoordinates,0592E0CC-BA3F-4339-BE53-95EDDC47ECB4*
G04*
G04*
G04 #@! TF.FilePolarity,Positive*
G04*
G01*
G75*
%ADD11C,0.00984*%
%ADD12C,0.00787*%
%ADD26C,0.01000*%
D11*
X42224Y62795D02*
G03*
X42224Y62795I-492J0D01*
G01*
D12*
X70965Y11614D02*
X82776D01*
Y17520D01*
X70965D02*
X82776D01*
X70965Y11614D02*
Y17520D01*
X60039Y53150D02*
Y59055D01*
X48228Y53150D02*
X60039D01*
X48228D02*
Y59055D01*
X60039D01*
X53051Y34154D02*
Y35335D01*
X62500Y34154D02*
Y35335D01*
X8858Y20374D02*
Y32185D01*
X2953D02*
X8858D01*
X2953Y20374D02*
Y32185D01*
Y20374D02*
X8858D01*
X66339Y47835D02*
X72244D01*
Y36024D02*
Y47835D01*
X66339Y36024D02*
X72244D01*
X66339D02*
Y47835D01*
X13780Y54016D02*
Y59921D01*
X25591D01*
Y54016D02*
Y59921D01*
X13780Y54016D02*
X25591D01*
X21654Y46260D02*
X35039D01*
X21654Y38780D02*
Y46260D01*
Y38780D02*
X35039D01*
Y46260D01*
X49016Y20669D02*
Y26575D01*
X60827D01*
Y20669D02*
Y26575D01*
X49016Y20669D02*
X60827D01*
X24016Y24705D02*
X29921D01*
X24016D02*
Y36516D01*
X29921D01*
Y24705D02*
Y36516D01*
X33661Y61811D02*
X36811D01*
X33661Y58465D02*
Y61811D01*
Y49606D02*
X36811D01*
X33661D02*
Y52953D01*
X66732Y60925D02*
X67519Y61712D01*
X69094D01*
X69881Y60925D01*
Y57776D01*
X69094Y56989D01*
X67519D01*
X66732Y57776D01*
X62009Y61712D02*
X63583Y60925D01*
X65158Y59350D01*
Y57776D01*
X64371Y56989D01*
X62796D01*
X62009Y57776D01*
Y58563D01*
X62796Y59350D01*
X65158D01*
X19388Y15749D02*
Y20472D01*
X17027D01*
X16240Y19684D01*
Y18110D01*
X17027Y17323D01*
X19388D01*
X17814D02*
X16240Y15749D01*
X11517D02*
X14666D01*
X11517Y18897D01*
Y19684D01*
X12304Y20472D01*
X13879D01*
X14666Y19684D01*
X64468Y51673D02*
X61319Y46950D01*
Y51673D02*
X64468Y46950D01*
X59745D02*
X58170D01*
X58957D01*
Y51673D01*
X59745Y50885D01*
X30215Y52165D02*
Y48229D01*
X29428Y47442D01*
X27854D01*
X27067Y48229D01*
Y52165D01*
X22344Y47442D02*
X25492D01*
X22344Y50590D01*
Y51377D01*
X23131Y52165D01*
X24705D01*
X25492Y51377D01*
X82381Y20079D02*
Y24802D01*
X80019D01*
X79232Y24015D01*
Y22441D01*
X80019Y21654D01*
X82381D01*
X80807D02*
X79232Y20079D01*
X77658D02*
X76084D01*
X76871D01*
Y24802D01*
X77658Y24015D01*
X16634Y30708D02*
X15847Y31495D01*
Y33070D01*
X16634Y33857D01*
X19783D01*
X20570Y33070D01*
Y31495D01*
X19783Y30708D01*
X15847Y25986D02*
Y29134D01*
X18209D01*
X17422Y27560D01*
Y26773D01*
X18209Y25986D01*
X19783D01*
X20570Y26773D01*
Y28347D01*
X19783Y29134D01*
X71161Y53543D02*
X71948Y54330D01*
X73523D01*
X74310Y53543D01*
Y50394D01*
X73523Y49607D01*
X71948D01*
X71161Y50394D01*
X67225Y49607D02*
Y54330D01*
X69587Y51968D01*
X66438D01*
X40354Y28247D02*
X41141Y29035D01*
X42715D01*
X43503Y28247D01*
Y25099D01*
X42715Y24312D01*
X41141D01*
X40354Y25099D01*
X38780Y28247D02*
X37993Y29035D01*
X36418D01*
X35631Y28247D01*
Y27460D01*
X36418Y26673D01*
X37205D01*
X36418D01*
X35631Y25886D01*
Y25099D01*
X36418Y24312D01*
X37993D01*
X38780Y25099D01*
X8071Y58346D02*
X8858Y59133D01*
X10432D01*
X11220Y58346D01*
Y55197D01*
X10432Y54410D01*
X8858D01*
X8071Y55197D01*
X6497Y54410D02*
X4922D01*
X5709D01*
Y59133D01*
X6497Y58346D01*
X15354Y44980D02*
X18503D01*
Y42618D01*
X16929D01*
X18503D01*
Y40257D01*
X13780D02*
X12206D01*
X12993D01*
Y44980D01*
X13780Y44192D01*
D26*
X64567Y44685D02*
G03*
X64567Y44685I-394J0D01*
G01*
M02*
