M48
;Layer_Color=9474304
;FILE_FORMAT=2:5
INCH,LZ
;TYPE=PLATED
T1F00S00C0.01181
T2F00S00C0.03543
%
T01
X0056988Y0003543
X0056849Y0011272
X0065354Y0019291
X0074311Y0020374
X006998Y0027165
X0069882Y0031004
X0045669Y003061
X0045768Y0025197
X0066831Y0003543
X0076181
X0091154Y0003472
X0090564Y0011543
X0085446Y001174
X0077264Y0053347
X0057087Y0059744
X0044094Y0055709
X0029232Y006063
X0025492Y0049803
X0021654Y004252
X0021752Y0032283
X0022343Y0025197
X0027953Y0037894
X0042913Y0033071
X004252Y0022835
X0034055Y0018602
X0036909Y0003543
X0003457Y000298
X0004934Y0009476
X0005906Y001565
X0003937Y0061713
X0004035Y0070866
X0017323Y0063878
T02
X0051811Y0007402
X0061811
X0071811
X0081811
X0087087Y0017559
Y0027559
Y0037559
Y0047559
Y0057559
X0081811Y0067402
X0071811
X0061811
X0051811
X0041811
X0031811
X0021811
X0011811
Y0007402
X0021811
X0031811
X0041811
M30
