G04*
G04 #@! TF.GenerationSoftware,Altium Limited,Altium Designer,22.4.2 (48)*
G04*
G04 Layer_Physical_Order=2*
G04 Layer_Color=16711680*
%FSLAX25Y25*%
%MOIN*%
G70*
G04*
G04 #@! TF.SameCoordinates,0592E0CC-BA3F-4339-BE53-95EDDC47ECB4*
G04*
G04*
G04 #@! TF.FilePolarity,Positive*
G04*
G01*
G75*
%ADD10C,0.02362*%
%ADD12C,0.00787*%
%ADD13R,0.03150X0.03740*%
%ADD24C,0.01968*%
%ADD25C,0.01575*%
%ADD27C,0.01500*%
%ADD28R,0.05906X0.05906*%
%ADD29C,0.05906*%
%ADD30R,0.05906X0.05906*%
%ADD31C,0.02362*%
%ADD32R,0.04724X0.05512*%
%ADD33R,0.03740X0.03150*%
%ADD34R,0.03150X0.05315*%
%ADD35R,0.07087X0.02362*%
%ADD36C,0.03150*%
%ADD37C,0.01772*%
G36*
X55411Y70445D02*
X55284Y70294D01*
X55171Y70110D01*
X55071Y69892D01*
X54986Y69641D01*
X54914Y69356D01*
X54856Y69038D01*
X54812Y68686D01*
X54766Y67883D01*
X54764Y67431D01*
X51841Y70354D01*
X52292Y70356D01*
X53096Y70403D01*
X53447Y70447D01*
X53765Y70504D01*
X54050Y70576D01*
X54302Y70662D01*
X54519Y70761D01*
X54704Y70875D01*
X54855Y71002D01*
X55411Y70445D01*
D02*
G37*
G36*
X30894Y68881D02*
X31001Y68791D01*
X31110Y68709D01*
X31222Y68636D01*
X31336Y68572D01*
X31453Y68515D01*
X31572Y68468D01*
X31694Y68429D01*
X31819Y68398D01*
X31945Y68377D01*
X30836Y67267D01*
X30814Y67394D01*
X30784Y67519D01*
X30745Y67640D01*
X30697Y67760D01*
X30641Y67876D01*
X30577Y67991D01*
X30504Y68103D01*
X30422Y68212D01*
X30332Y68318D01*
X30233Y68422D01*
X30790Y68979D01*
X30894Y68881D01*
D02*
G37*
G36*
X37008Y65413D02*
X36546Y65221D01*
X36101Y65666D01*
X36029Y65758D01*
X35920Y65924D01*
X35826Y66098D01*
X35747Y66280D01*
X35682Y66472D01*
X35668Y66525D01*
X35764Y66881D01*
Y67922D01*
X35494Y68927D01*
X34974Y69829D01*
X34238Y70565D01*
X33337Y71085D01*
X32331Y71354D01*
X31291D01*
X30285Y71085D01*
X29384Y70565D01*
X28648Y69829D01*
X28128Y68927D01*
X27858Y67922D01*
Y66881D01*
X28128Y65876D01*
X28648Y64974D01*
X29384Y64239D01*
X30285Y63718D01*
X31291Y63449D01*
X32331D01*
X32688Y63544D01*
X32741Y63531D01*
X32933Y63466D01*
X33115Y63387D01*
X33288Y63293D01*
X33454Y63184D01*
X33547Y63112D01*
X35632Y61026D01*
X36218Y60634D01*
X36909Y60497D01*
X37189D01*
Y59949D01*
X41732D01*
X46276D01*
Y60497D01*
X47343D01*
Y54523D01*
X46594Y53775D01*
X46309D01*
X46063Y53787D01*
Y53937D01*
X45281D01*
X45264Y53940D01*
X45246Y53937D01*
X41926D01*
X41732Y53976D01*
X41538Y53937D01*
X37402D01*
Y50000D01*
X37795D01*
Y47107D01*
X37175Y46486D01*
X36653Y45705D01*
X36470Y44783D01*
Y21136D01*
X36653Y20215D01*
X37175Y19433D01*
X37514Y19094D01*
D01*
X39020Y17588D01*
X39801Y17066D01*
X40723Y16883D01*
X65256D01*
X65844Y17000D01*
X69129Y13715D01*
X69129Y13715D01*
X69520Y13454D01*
X69980Y13363D01*
X69980Y13363D01*
X71457D01*
Y11909D01*
X76181D01*
Y12339D01*
X76643Y12530D01*
X77077Y12096D01*
X77097Y12117D01*
X77559Y11925D01*
Y11909D01*
X82284D01*
Y16145D01*
X82539Y16355D01*
X82539Y16355D01*
X83134D01*
Y13606D01*
X91039D01*
Y21512D01*
X87145D01*
X86954Y21974D01*
X89189Y24208D01*
X89514Y24396D01*
X90250Y25132D01*
X90278Y25182D01*
X90770Y26033D01*
X91039Y27039D01*
Y28080D01*
X90770Y29085D01*
X90250Y29986D01*
X89514Y30722D01*
X88612Y31242D01*
X87607Y31512D01*
X86566D01*
X85561Y31242D01*
X84660Y30722D01*
X83924Y29986D01*
X83403Y29085D01*
X83134Y28080D01*
Y27039D01*
X83403Y26033D01*
X83924Y25132D01*
X84082Y24974D01*
X84105Y24858D01*
X84119Y24695D01*
X84113Y24565D01*
X84092Y24463D01*
X84061Y24380D01*
X84016Y24305D01*
X83994Y24280D01*
X83852Y24137D01*
X73032D01*
X72571Y24046D01*
X72231Y23819D01*
X68990D01*
X68799Y24281D01*
X69605Y25087D01*
X69637Y25108D01*
X69670Y25126D01*
X69705Y25141D01*
X69745Y25155D01*
X69789Y25166D01*
X69839Y25174D01*
X69896Y25180D01*
X69987Y25182D01*
X70055Y25197D01*
X70372D01*
X71095Y25497D01*
X71649Y26050D01*
X71949Y26774D01*
Y27557D01*
X71649Y28280D01*
X71095Y28834D01*
X71045Y28855D01*
X71054Y29392D01*
X71551Y29889D01*
X71850Y30612D01*
Y31396D01*
X71551Y32119D01*
X70997Y32673D01*
X70496Y32880D01*
Y36614D01*
X71949D01*
Y41339D01*
X66634D01*
Y40279D01*
X64862D01*
Y42618D01*
X58563D01*
Y35531D01*
X64862D01*
Y37871D01*
X66634D01*
Y36614D01*
X68087D01*
Y32420D01*
X68074Y32122D01*
X68052Y31899D01*
X68022Y31719D01*
X68009Y31666D01*
X67989Y31598D01*
X67989Y31598D01*
X67989Y31597D01*
X67987Y31573D01*
X67913Y31396D01*
Y30612D01*
X68213Y29889D01*
X68767Y29335D01*
X68817Y29314D01*
X68808Y28777D01*
X68312Y28280D01*
X68012Y27557D01*
Y27240D01*
X67997Y27172D01*
X67994Y27081D01*
X67989Y27024D01*
X67981Y26974D01*
X67970Y26930D01*
X67956Y26891D01*
X67941Y26855D01*
X67923Y26822D01*
X67902Y26790D01*
X65938Y24826D01*
X60236D01*
Y26280D01*
X60531Y26658D01*
X61213D01*
Y29913D01*
X58350D01*
Y27864D01*
X57889Y27673D01*
X57177Y28384D01*
X57061Y28509D01*
X56988Y28599D01*
Y33957D01*
X50689D01*
Y30118D01*
D01*
Y26870D01*
D01*
X50394Y26492D01*
X49394D01*
Y24678D01*
X49441Y24685D01*
X49697Y24746D01*
X49914Y24825D01*
X50091Y24921D01*
X50229Y25034D01*
X50327Y25166D01*
X50386Y25314D01*
X50406Y25480D01*
Y24122D01*
X51968D01*
Y23122D01*
X50406D01*
Y21764D01*
X50386Y21930D01*
X50327Y22079D01*
X50229Y22210D01*
X50091Y22323D01*
X49914Y22419D01*
X49697Y22498D01*
X49441Y22559D01*
X49394Y22566D01*
Y21700D01*
X41721D01*
X41286Y22134D01*
Y29574D01*
X41831Y30118D01*
X43742D01*
X44001Y29495D01*
X44554Y28941D01*
X45278Y28642D01*
X46061D01*
X46784Y28941D01*
X47244Y29401D01*
X47338Y29495D01*
X47596Y30118D01*
X47638Y30219D01*
Y31002D01*
X47338Y31725D01*
X47244Y31819D01*
X47244Y40620D01*
X54731Y48107D01*
X79167D01*
X80566Y46708D01*
X80566Y46707D01*
X80957Y46446D01*
X81417Y46355D01*
X81417Y46355D01*
X82445D01*
X82458Y46354D01*
X82562Y46329D01*
X82702Y46277D01*
X82875Y46192D01*
X83076Y46072D01*
X83301Y45916D01*
X83542Y45728D01*
X83619Y45660D01*
X83924Y45132D01*
X84660Y44396D01*
X85561Y43876D01*
X86566Y43606D01*
X87607D01*
X88612Y43876D01*
X89514Y44396D01*
X90250Y45132D01*
X90770Y46033D01*
X91039Y47039D01*
Y48079D01*
X91078Y48130D01*
X93284D01*
Y23819D01*
Y1204D01*
X1204D01*
Y73599D01*
X37008D01*
Y65413D01*
D02*
G37*
G36*
X34771Y67074D02*
X34797Y66787D01*
X34844Y66511D01*
X34911Y66245D01*
X34997Y65990D01*
X35104Y65746D01*
X35230Y65512D01*
X35376Y65290D01*
X35542Y65078D01*
X35728Y64876D01*
X34336Y63484D01*
X34135Y63670D01*
X33923Y63836D01*
X33700Y63983D01*
X33467Y64109D01*
X33222Y64215D01*
X32967Y64302D01*
X32702Y64368D01*
X32425Y64415D01*
X32138Y64442D01*
X31841Y64449D01*
X34764Y67372D01*
X34771Y67074D01*
D02*
G37*
G36*
X57882Y59236D02*
X57905Y58968D01*
X57944Y58732D01*
X57998Y58527D01*
X58068Y58354D01*
X58153Y58212D01*
X58254Y58102D01*
X58370Y58023D01*
X58502Y57976D01*
X58649Y57960D01*
X55524D01*
X55671Y57976D01*
X55803Y58023D01*
X55919Y58102D01*
X56020Y58212D01*
X56105Y58354D01*
X56175Y58527D01*
X56229Y58732D01*
X56268Y58968D01*
X56292Y59236D01*
X56299Y59535D01*
X57874D01*
X57882Y59236D01*
D02*
G37*
G36*
X51191Y59553D02*
X51221Y59217D01*
X51270Y58921D01*
X51339Y58664D01*
X51427Y58446D01*
X51535Y58268D01*
X51663Y58129D01*
X51811Y58029D01*
X51978Y57969D01*
X52165Y57948D01*
X49618Y57960D01*
X49213Y59929D01*
X51181D01*
X51191Y59553D01*
D02*
G37*
G36*
X52402Y54244D02*
X52242Y54349D01*
X52040Y54383D01*
X51797Y54349D01*
X51511Y54244D01*
X51184Y54070D01*
X50815Y53827D01*
X50405Y53513D01*
X49458Y52678D01*
X48922Y52156D01*
X47530Y53548D01*
X48052Y54084D01*
X49201Y55441D01*
X49444Y55810D01*
X49618Y56137D01*
X49723Y56423D01*
X49758Y56666D01*
X49723Y56868D01*
X49618Y57028D01*
X52402Y54244D01*
D02*
G37*
G36*
X87476Y54632D02*
X86995Y54563D01*
X85457Y54239D01*
X85169Y54146D01*
X84919Y54048D01*
X84708Y53945D01*
X84535Y53837D01*
X84401Y53724D01*
X83764Y54201D01*
X83901Y54363D01*
X84016Y54553D01*
X84110Y54773D01*
X84183Y55020D01*
X84234Y55297D01*
X84263Y55603D01*
X84272Y55937D01*
X84259Y56300D01*
X84168Y57111D01*
X87476Y54632D01*
D02*
G37*
G36*
X76334Y54839D02*
X76419Y54773D01*
X76508Y54714D01*
X76601Y54663D01*
X76699Y54621D01*
X76801Y54586D01*
X76907Y54560D01*
X77018Y54541D01*
X77133Y54530D01*
X77252Y54527D01*
X76083Y53358D01*
X76080Y53477D01*
X76069Y53592D01*
X76051Y53703D01*
X76024Y53809D01*
X75989Y53911D01*
X75947Y54009D01*
X75896Y54102D01*
X75838Y54191D01*
X75771Y54276D01*
X75697Y54357D01*
X76254Y54913D01*
X76334Y54839D01*
D02*
G37*
G36*
X45283Y53102D02*
X45342Y53071D01*
X45441Y53043D01*
X45579Y53019D01*
X45756Y52999D01*
X46523Y52960D01*
X47232Y52953D01*
Y50984D01*
X46858Y50982D01*
X45441Y50894D01*
X45342Y50866D01*
X45283Y50835D01*
X45264Y50799D01*
Y53138D01*
X45283Y53102D01*
D02*
G37*
G36*
X43870Y50788D02*
X43669Y50716D01*
X43492Y50598D01*
X43339Y50432D01*
X43209Y50218D01*
X43102Y49957D01*
X43020Y49648D01*
X42961Y49292D01*
X42925Y48888D01*
X42913Y48437D01*
X40551D01*
X40539Y48888D01*
X40504Y49292D01*
X40445Y49648D01*
X40362Y49957D01*
X40256Y50218D01*
X40126Y50432D01*
X39972Y50598D01*
X39795Y50716D01*
X39595Y50788D01*
X39370Y50811D01*
X44094D01*
X43870Y50788D01*
D02*
G37*
G36*
X84978Y45492D02*
X84657Y45810D01*
X84056Y46345D01*
X83776Y46563D01*
X83511Y46747D01*
X83258Y46898D01*
X83020Y47015D01*
X82796Y47098D01*
X82585Y47149D01*
X82389Y47165D01*
Y47953D01*
X82585Y47969D01*
X82796Y48020D01*
X83020Y48103D01*
X83258Y48221D01*
X83511Y48371D01*
X83776Y48555D01*
X84056Y48773D01*
X84657Y49308D01*
X84978Y49626D01*
Y45492D01*
D02*
G37*
G36*
X67445Y38287D02*
X67437Y38362D01*
X67413Y38429D01*
X67373Y38488D01*
X67317Y38539D01*
X67245Y38583D01*
X67158Y38618D01*
X67054Y38646D01*
X66934Y38665D01*
X66798Y38677D01*
X66646Y38681D01*
Y39469D01*
X66798Y39472D01*
X66934Y39484D01*
X67054Y39504D01*
X67158Y39531D01*
X67245Y39567D01*
X67317Y39610D01*
X67373Y39661D01*
X67413Y39720D01*
X67437Y39787D01*
X67445Y39862D01*
Y38287D01*
D02*
G37*
G36*
X64059Y39787D02*
X64083Y39720D01*
X64123Y39661D01*
X64179Y39610D01*
X64251Y39567D01*
X64339Y39531D01*
X64442Y39504D01*
X64562Y39484D01*
X64698Y39472D01*
X64850Y39469D01*
Y38681D01*
X64698Y38677D01*
X64562Y38665D01*
X64442Y38646D01*
X64339Y38618D01*
X64251Y38583D01*
X64179Y38539D01*
X64123Y38488D01*
X64083Y38429D01*
X64059Y38362D01*
X64051Y38287D01*
Y39862D01*
X64059Y39787D01*
D02*
G37*
G36*
X70004Y37406D02*
X69937Y37382D01*
X69878Y37343D01*
X69827Y37288D01*
X69784Y37217D01*
X69748Y37130D01*
X69721Y37028D01*
X69701Y36910D01*
X69689Y36776D01*
X69685Y36626D01*
X68898D01*
X68894Y36776D01*
X68882Y36910D01*
X68862Y37028D01*
X68835Y37130D01*
X68799Y37217D01*
X68756Y37288D01*
X68705Y37343D01*
X68646Y37382D01*
X68579Y37406D01*
X68504Y37414D01*
X70079D01*
X70004Y37406D01*
D02*
G37*
G36*
X43311Y34784D02*
X43324Y34677D01*
X43346Y34572D01*
X43376Y34470D01*
X43415Y34371D01*
X43463Y34275D01*
X43519Y34181D01*
X43584Y34089D01*
X43658Y34001D01*
X43740Y33914D01*
X42087D01*
X42169Y34001D01*
X42243Y34089D01*
X42307Y34181D01*
X42364Y34275D01*
X42411Y34371D01*
X42450Y34470D01*
X42481Y34572D01*
X42502Y34677D01*
X42515Y34784D01*
X42520Y34893D01*
X43307D01*
X43311Y34784D01*
D02*
G37*
G36*
X46067Y32323D02*
X46080Y32216D01*
X46102Y32112D01*
X46132Y32010D01*
X46171Y31911D01*
X46219Y31814D01*
X46275Y31720D01*
X46340Y31629D01*
X46414Y31540D01*
X46496Y31454D01*
X44842D01*
X44925Y31540D01*
X44998Y31629D01*
X45063Y31720D01*
X45120Y31814D01*
X45167Y31911D01*
X45206Y32010D01*
X45237Y32112D01*
X45258Y32216D01*
X45271Y32323D01*
X45276Y32432D01*
X46063D01*
X46067Y32323D01*
D02*
G37*
G36*
X69690Y32761D02*
X69705Y32655D01*
X69729Y32558D01*
X69764Y32471D01*
X69808Y32393D01*
X69862Y32325D01*
X69926Y32267D01*
X69999Y32217D01*
X70083Y32178D01*
X70176Y32148D01*
X68760Y31372D01*
X68786Y31461D01*
X68809Y31561D01*
X68848Y31792D01*
X68875Y32065D01*
X68896Y32552D01*
X68898Y32735D01*
X69685Y32877D01*
X69690Y32761D01*
D02*
G37*
G36*
X56133Y28723D02*
X56112Y28651D01*
X56114Y28568D01*
X56137Y28474D01*
X56183Y28368D01*
X56251Y28251D01*
X56341Y28123D01*
X56454Y27983D01*
X56746Y27670D01*
X56189Y27113D01*
X56026Y27270D01*
X55735Y27517D01*
X55607Y27608D01*
X55490Y27676D01*
X55384Y27721D01*
X55290Y27745D01*
X55207Y27746D01*
X55135Y27725D01*
X55075Y27681D01*
X56177Y28783D01*
X56133Y28723D01*
D02*
G37*
G36*
X69968Y25984D02*
X69849Y25982D01*
X69735Y25971D01*
X69624Y25952D01*
X69518Y25925D01*
X69416Y25891D01*
X69318Y25848D01*
X69225Y25798D01*
X69135Y25739D01*
X69051Y25673D01*
X68970Y25598D01*
X68413Y26155D01*
X68488Y26236D01*
X68554Y26321D01*
X68613Y26410D01*
X68663Y26503D01*
X68706Y26601D01*
X68740Y26703D01*
X68767Y26809D01*
X68786Y26920D01*
X68796Y27034D01*
X68799Y27154D01*
X69968Y25984D01*
D02*
G37*
G36*
X58043Y26071D02*
X58053Y25944D01*
X58070Y25833D01*
X58094Y25736D01*
X58125Y25654D01*
X58162Y25587D01*
X58206Y25535D01*
X58256Y25498D01*
X58314Y25476D01*
X58378Y25468D01*
X56914D01*
X56979Y25476D01*
X57036Y25498D01*
X57087Y25535D01*
X57131Y25587D01*
X57168Y25654D01*
X57199Y25736D01*
X57222Y25833D01*
X57239Y25944D01*
X57249Y26071D01*
X57253Y26212D01*
X58040D01*
X58043Y26071D01*
D02*
G37*
G36*
X88330Y24881D02*
X85365Y23391D01*
X84522Y23661D01*
X84671Y23836D01*
X84786Y24029D01*
X84866Y24239D01*
X84912Y24466D01*
X84924Y24711D01*
X84901Y24973D01*
X84844Y25253D01*
X84753Y25550D01*
X84627Y25864D01*
X84467Y26197D01*
X88330Y24881D01*
D02*
G37*
G36*
X59445Y24335D02*
X59468Y24268D01*
X59508Y24209D01*
X59563Y24158D01*
X59634Y24114D01*
X59720Y24079D01*
X59823Y24051D01*
X59941Y24032D01*
X60075Y24020D01*
X60224Y24016D01*
Y23228D01*
X60075Y23224D01*
X59941Y23213D01*
X59823Y23193D01*
X59720Y23165D01*
X59634Y23130D01*
X59563Y23087D01*
X59508Y23035D01*
X59468Y22976D01*
X59445Y22909D01*
X59437Y22835D01*
Y24409D01*
X59445Y24335D01*
D02*
G37*
G36*
X75241Y21118D02*
X75330Y21045D01*
X75421Y20980D01*
X75515Y20924D01*
X75611Y20876D01*
X75711Y20837D01*
X75812Y20807D01*
X75917Y20785D01*
X76024Y20772D01*
X76133Y20768D01*
Y19980D01*
X76024Y19976D01*
X75917Y19963D01*
X75812Y19941D01*
X75711Y19911D01*
X75611Y19872D01*
X75515Y19824D01*
X75421Y19768D01*
X75330Y19703D01*
X75241Y19629D01*
X75155Y19547D01*
Y21201D01*
X75241Y21118D01*
D02*
G37*
G36*
X66437Y19788D02*
X66503Y19704D01*
X66574Y19631D01*
X66651Y19567D01*
X66735Y19513D01*
X66824Y19468D01*
X66919Y19434D01*
X67020Y19409D01*
X67127Y19395D01*
X67240Y19390D01*
X67022Y18602D01*
X66918Y18599D01*
X66812Y18589D01*
X66707Y18573D01*
X66644Y18560D01*
X66689Y18472D01*
X66747Y18383D01*
X66813Y18298D01*
X66888Y18216D01*
X66296Y17694D01*
X66216Y17768D01*
X66132Y17835D01*
X66044Y17895D01*
X65950Y17947D01*
X65853Y17992D01*
X65750Y18031D01*
X65644Y18061D01*
X65532Y18085D01*
X65417Y18102D01*
X65297Y18112D01*
X66107Y18832D01*
X66378Y19881D01*
X66437Y19788D01*
D02*
G37*
G36*
X84158Y16772D02*
X84150Y16847D01*
X84126Y16913D01*
X84086Y16973D01*
X84030Y17024D01*
X83958Y17067D01*
X83870Y17102D01*
X83766Y17130D01*
X83646Y17150D01*
X83510Y17161D01*
X83359Y17165D01*
Y17953D01*
X83510Y17957D01*
X83646Y17968D01*
X83766Y17988D01*
X83870Y18016D01*
X83958Y18051D01*
X84030Y18094D01*
X84086Y18146D01*
X84126Y18205D01*
X84150Y18272D01*
X84158Y18347D01*
Y16772D01*
D02*
G37*
G36*
X80319Y17061D02*
X80331Y16925D01*
X80350Y16805D01*
X80378Y16701D01*
X80413Y16613D01*
X80457Y16541D01*
X80508Y16485D01*
X80567Y16445D01*
X80634Y16421D01*
X80709Y16413D01*
X79134D01*
X79209Y16421D01*
X79276Y16445D01*
X79335Y16485D01*
X79386Y16541D01*
X79429Y16613D01*
X79465Y16701D01*
X79492Y16805D01*
X79512Y16925D01*
X79524Y17061D01*
X79528Y17212D01*
X80315D01*
X80319Y17061D01*
D02*
G37*
G36*
X72268Y13780D02*
X72260Y13854D01*
X72236Y13921D01*
X72196Y13980D01*
X72140Y14031D01*
X72068Y14075D01*
X71980Y14110D01*
X71876Y14138D01*
X71757Y14157D01*
X71621Y14169D01*
X71469Y14173D01*
Y14961D01*
X71621Y14965D01*
X71757Y14976D01*
X71876Y14996D01*
X71980Y15024D01*
X72068Y15059D01*
X72140Y15102D01*
X72196Y15154D01*
X72236Y15213D01*
X72260Y15280D01*
X72268Y15354D01*
Y13780D01*
D02*
G37*
%LPC*%
G36*
X12331Y71354D02*
X12311D01*
Y67902D01*
X15764D01*
Y67922D01*
X15494Y68927D01*
X14974Y69829D01*
X14238Y70565D01*
X13337Y71085D01*
X12331Y71354D01*
D02*
G37*
G36*
X11311D02*
X11291D01*
X10285Y71085D01*
X9384Y70565D01*
X8648Y69829D01*
X8128Y68927D01*
X7858Y67922D01*
Y67902D01*
X11311D01*
Y71354D01*
D02*
G37*
G36*
X15764Y66902D02*
X12311D01*
Y63449D01*
X12331D01*
X13337Y63718D01*
X14238Y64239D01*
X14974Y64974D01*
X15494Y65876D01*
X15764Y66881D01*
Y66902D01*
D02*
G37*
G36*
X11311D02*
X7858D01*
Y66881D01*
X8128Y65876D01*
X8648Y64974D01*
X9384Y64239D01*
X10285Y63718D01*
X11291Y63449D01*
X11311D01*
Y66902D01*
D02*
G37*
G36*
X19307Y59839D02*
X17232D01*
Y57468D01*
X19307D01*
Y59839D01*
D02*
G37*
G36*
X16232D02*
X14157D01*
Y57468D01*
X16232D01*
Y59839D01*
D02*
G37*
G36*
X46276Y58949D02*
X42232D01*
Y57268D01*
X46276D01*
Y58949D01*
D02*
G37*
G36*
X41232D02*
X37189D01*
Y57268D01*
X41232D01*
Y58949D01*
D02*
G37*
G36*
X19307Y56468D02*
X17232D01*
Y54098D01*
X19307D01*
Y56468D01*
D02*
G37*
G36*
X16232D02*
X14157D01*
Y54098D01*
X16232D01*
Y56468D01*
D02*
G37*
G36*
X72161Y47457D02*
X69791D01*
Y45382D01*
X71149D01*
Y46445D01*
X71165Y46297D01*
X71212Y46165D01*
X71291Y46049D01*
X71401Y45948D01*
X71543Y45863D01*
X71716Y45793D01*
X71921Y45739D01*
X72157Y45700D01*
X72161Y45700D01*
Y47457D01*
D02*
G37*
G36*
X68791D02*
X66421D01*
Y45700D01*
X66425Y45700D01*
X66662Y45739D01*
X66866Y45793D01*
X67040Y45863D01*
X67181Y45948D01*
X67291Y46049D01*
X67370Y46165D01*
X67418Y46297D01*
X67433Y46445D01*
Y45382D01*
X68791D01*
Y47457D01*
D02*
G37*
G36*
Y44382D02*
X67433D01*
Y43319D01*
X67418Y43466D01*
X67370Y43598D01*
X67291Y43714D01*
X67181Y43815D01*
X67040Y43901D01*
X66866Y43970D01*
X66662Y44025D01*
X66425Y44063D01*
X66421Y44064D01*
Y42307D01*
X68791D01*
Y44382D01*
D02*
G37*
G36*
X71149D02*
X69791D01*
Y42307D01*
X72161D01*
Y44064D01*
X72157Y44063D01*
X71921Y44025D01*
X71716Y43970D01*
X71543Y43901D01*
X71401Y43815D01*
X71291Y43714D01*
X71212Y43598D01*
X71165Y43466D01*
X71149Y43319D01*
Y44382D01*
D02*
G37*
G36*
X57201Y42831D02*
X54339D01*
Y39575D01*
X57201D01*
Y42831D01*
D02*
G37*
G36*
X53339D02*
X50476D01*
Y39575D01*
X53339D01*
Y42831D01*
D02*
G37*
G36*
X22331Y71354D02*
X21291D01*
X20285Y71085D01*
X19384Y70565D01*
X18648Y69829D01*
X18128Y68927D01*
X17858Y67922D01*
Y66881D01*
X18128Y65876D01*
X18648Y64974D01*
X19384Y64239D01*
X20285Y63718D01*
X20717Y63603D01*
X20770Y63548D01*
X20875Y63415D01*
X20957Y63281D01*
X21019Y63145D01*
X21063Y63002D01*
X21086Y62870D01*
Y59992D01*
X21077Y59883D01*
X21050Y59725D01*
X21024Y59626D01*
X20276D01*
Y54311D01*
X23242D01*
X23317Y54260D01*
X23917Y54141D01*
X27713D01*
X27742Y54140D01*
X27920Y54124D01*
X27953Y54119D01*
Y53740D01*
X28735D01*
X28752Y53737D01*
X28769Y53740D01*
X30555D01*
X30582Y53641D01*
X30608Y53483D01*
X30617Y53374D01*
Y46331D01*
X30608Y46222D01*
X30582Y46064D01*
X30555Y45965D01*
X29823D01*
Y39515D01*
X29323Y39307D01*
X29068Y39562D01*
X28344Y39862D01*
X27561D01*
X27286Y39748D01*
X26870Y40026D01*
Y45965D01*
X22146D01*
Y44555D01*
X22045Y44488D01*
X21262D01*
X20538Y44188D01*
X19985Y43635D01*
X19685Y42911D01*
Y42128D01*
X19985Y41405D01*
X20538Y40851D01*
X21262Y40551D01*
X22045D01*
X22146Y40484D01*
Y39075D01*
X25770D01*
X26104Y38575D01*
X25984Y38285D01*
Y37502D01*
X26078Y37276D01*
X25856Y36944D01*
X25764Y36483D01*
X25764Y36483D01*
Y35925D01*
X24311D01*
Y31201D01*
X29626D01*
Y35925D01*
X29475D01*
X29268Y36425D01*
X29622Y36779D01*
X29921Y37502D01*
Y38285D01*
X29797Y38586D01*
X30135Y39075D01*
X34547D01*
Y45965D01*
X33815D01*
X33788Y46064D01*
X33762Y46222D01*
X33753Y46331D01*
Y53374D01*
X33762Y53483D01*
X33788Y53641D01*
X33815Y53740D01*
X36614D01*
Y57677D01*
X28769D01*
X28752Y57681D01*
X28735Y57677D01*
X27953D01*
Y57299D01*
X27929Y57295D01*
X27659Y57276D01*
X25369D01*
X25262Y57286D01*
X25106Y57312D01*
X25000Y57340D01*
Y59626D01*
X24283D01*
X24257Y59725D01*
X24231Y59883D01*
X24221Y59992D01*
Y63345D01*
X24236Y63459D01*
X24273Y63641D01*
X24413Y64115D01*
X24501Y64350D01*
X24632Y64633D01*
X24974Y64974D01*
X25494Y65876D01*
X25764Y66881D01*
Y67922D01*
X25494Y68927D01*
X24974Y69829D01*
X24238Y70565D01*
X23337Y71085D01*
X22331Y71354D01*
D02*
G37*
G36*
X87607Y41512D02*
X87587D01*
Y38059D01*
X91039D01*
Y38080D01*
X90770Y39085D01*
X90250Y39986D01*
X89514Y40722D01*
X88612Y41242D01*
X87607Y41512D01*
D02*
G37*
G36*
X86587D02*
X86566D01*
X85561Y41242D01*
X84660Y40722D01*
X83924Y39986D01*
X83403Y39085D01*
X83134Y38080D01*
Y38059D01*
X86587D01*
Y41512D01*
D02*
G37*
G36*
X57201Y38575D02*
X54339D01*
Y35319D01*
X57201D01*
Y38575D01*
D02*
G37*
G36*
X53339D02*
X50476D01*
Y35319D01*
X53339D01*
Y38575D01*
D02*
G37*
G36*
X91039Y37059D02*
X87587D01*
Y33606D01*
X87607D01*
X88612Y33876D01*
X89514Y34396D01*
X90250Y35132D01*
X90770Y36033D01*
X91039Y37039D01*
Y37059D01*
D02*
G37*
G36*
X86587D02*
X83134D01*
Y37039D01*
X83403Y36033D01*
X83924Y35132D01*
X84660Y34396D01*
X85561Y33876D01*
X86566Y33606D01*
X86587D01*
Y37059D01*
D02*
G37*
G36*
X65075Y34169D02*
X62213D01*
Y30913D01*
X65075D01*
Y34169D01*
D02*
G37*
G36*
X61213D02*
X58350D01*
Y30913D01*
X61213D01*
Y34169D01*
D02*
G37*
G36*
X8776Y31905D02*
X6406D01*
Y29831D01*
X8776D01*
Y31905D01*
D02*
G37*
G36*
X5406D02*
X3035D01*
Y29831D01*
X5406D01*
Y31905D01*
D02*
G37*
G36*
X29839Y30232D02*
X27468D01*
Y28157D01*
X29839D01*
Y30232D01*
D02*
G37*
G36*
X26469D02*
X24098D01*
Y28157D01*
X26469D01*
Y30232D01*
D02*
G37*
G36*
X8776Y28831D02*
X6406D01*
Y26756D01*
X8776D01*
Y28831D01*
D02*
G37*
G36*
X5406D02*
X3035D01*
Y26756D01*
X5406D01*
Y28831D01*
D02*
G37*
G36*
X65075Y29913D02*
X62213D01*
Y26658D01*
X65075D01*
Y29913D01*
D02*
G37*
G36*
X29839Y27158D02*
X27468D01*
Y25083D01*
X29839D01*
Y27158D01*
D02*
G37*
G36*
X26469D02*
X24098D01*
Y25083D01*
X26469D01*
Y27158D01*
D02*
G37*
G36*
X8563Y25591D02*
X3248D01*
Y20866D01*
X4223D01*
X4229Y20851D01*
X4262Y20730D01*
X4290Y20561D01*
X4300Y20443D01*
Y16828D01*
X4237Y16765D01*
X3937Y16041D01*
Y15258D01*
X4237Y14535D01*
X4790Y13981D01*
X5514Y13681D01*
X6297D01*
X7021Y13981D01*
X7574Y14535D01*
X7874Y15258D01*
Y16041D01*
X7574Y16765D01*
X7519Y16820D01*
X7511Y16968D01*
Y20443D01*
X7521Y20561D01*
X7549Y20730D01*
X7582Y20851D01*
X7588Y20866D01*
X8563D01*
Y25591D01*
D02*
G37*
G36*
X82331Y11354D02*
X81291D01*
X80285Y11085D01*
X79384Y10565D01*
X78648Y9829D01*
X78128Y8927D01*
X77858Y7922D01*
Y6881D01*
X78128Y5876D01*
X78648Y4975D01*
X79384Y4239D01*
X80285Y3718D01*
X81291Y3449D01*
X82331D01*
X83337Y3718D01*
X84238Y4239D01*
X84974Y4975D01*
X85494Y5876D01*
X85764Y6881D01*
Y7922D01*
X85494Y8927D01*
X84974Y9829D01*
X84238Y10565D01*
X83337Y11085D01*
X82331Y11354D01*
D02*
G37*
G36*
X72331D02*
X71291D01*
X70285Y11085D01*
X69384Y10565D01*
X68648Y9829D01*
X68128Y8927D01*
X67858Y7922D01*
Y6881D01*
X68128Y5876D01*
X68648Y4975D01*
X69384Y4239D01*
X70285Y3718D01*
X71291Y3449D01*
X72331D01*
X73337Y3718D01*
X74238Y4239D01*
X74974Y4975D01*
X75494Y5876D01*
X75764Y6881D01*
Y7922D01*
X75494Y8927D01*
X74974Y9829D01*
X74892Y9911D01*
X74238Y10565D01*
X73337Y11085D01*
X72331Y11354D01*
D02*
G37*
G36*
X62331D02*
X61291D01*
X60285Y11085D01*
X59384Y10565D01*
X58648Y9829D01*
X58128Y8927D01*
X57858Y7922D01*
Y6881D01*
X58128Y5876D01*
X58648Y4975D01*
X59384Y4239D01*
X60285Y3718D01*
X61291Y3449D01*
X62331D01*
X63337Y3718D01*
X64238Y4239D01*
X64974Y4975D01*
X65494Y5876D01*
X65764Y6881D01*
Y7922D01*
X65494Y8927D01*
X64974Y9829D01*
X64238Y10565D01*
X63337Y11085D01*
X62331Y11354D01*
D02*
G37*
G36*
X52331D02*
X51291D01*
X50285Y11085D01*
X49384Y10565D01*
X48648Y9829D01*
X48128Y8927D01*
X47858Y7922D01*
Y6881D01*
X48128Y5876D01*
X48648Y4975D01*
X49384Y4239D01*
X50285Y3718D01*
X51291Y3449D01*
X52331D01*
X53337Y3718D01*
X54238Y4239D01*
X54974Y4975D01*
X55494Y5876D01*
X55764Y6881D01*
Y7922D01*
X55494Y8927D01*
X54974Y9829D01*
X54238Y10565D01*
X53337Y11085D01*
X52331Y11354D01*
D02*
G37*
G36*
X42331D02*
X41291D01*
X40285Y11085D01*
X39384Y10565D01*
X38648Y9829D01*
X38128Y8927D01*
X37858Y7922D01*
Y6881D01*
X38128Y5876D01*
X38648Y4975D01*
X39384Y4239D01*
X40285Y3718D01*
X41291Y3449D01*
X42331D01*
X43337Y3718D01*
X44238Y4239D01*
X44974Y4975D01*
X45494Y5876D01*
X45764Y6881D01*
Y7922D01*
X45494Y8927D01*
X44974Y9829D01*
X44238Y10565D01*
X43337Y11085D01*
X42331Y11354D01*
D02*
G37*
G36*
X32331D02*
X31291D01*
X30285Y11085D01*
X29384Y10565D01*
X28648Y9829D01*
X28128Y8927D01*
X27858Y7922D01*
Y6881D01*
X28128Y5876D01*
X28648Y4975D01*
X29384Y4239D01*
X30285Y3718D01*
X31291Y3449D01*
X32331D01*
X33337Y3718D01*
X34238Y4239D01*
X34974Y4975D01*
X35494Y5876D01*
X35764Y6881D01*
Y7922D01*
X35494Y8927D01*
X34974Y9829D01*
X34238Y10565D01*
X33337Y11085D01*
X32331Y11354D01*
D02*
G37*
G36*
X22331D02*
X21291D01*
X20285Y11085D01*
X19384Y10565D01*
X18648Y9829D01*
X18128Y8927D01*
X17858Y7922D01*
Y6881D01*
X18128Y5876D01*
X18648Y4975D01*
X19384Y4239D01*
X20285Y3718D01*
X21291Y3449D01*
X22331D01*
X23337Y3718D01*
X24238Y4239D01*
X24974Y4975D01*
X25494Y5876D01*
X25764Y6881D01*
Y7922D01*
X25494Y8927D01*
X24974Y9829D01*
X24238Y10565D01*
X23337Y11085D01*
X22331Y11354D01*
D02*
G37*
G36*
X15764D02*
X7858D01*
Y3449D01*
X15764D01*
Y11354D01*
D02*
G37*
%LPD*%
G36*
X24206Y65620D02*
X23760Y64660D01*
X23651Y64370D01*
X23493Y63835D01*
X23443Y63589D01*
X23414Y63359D01*
X23404Y63143D01*
X21904Y62679D01*
X21889Y62940D01*
X21845Y63190D01*
X21771Y63429D01*
X21668Y63657D01*
X21536Y63874D01*
X21374Y64080D01*
X21182Y64274D01*
X20962Y64457D01*
X20711Y64630D01*
X20432Y64791D01*
X24394Y65970D01*
X24206Y65620D01*
D02*
G37*
G36*
X23411Y60039D02*
X23434Y59782D01*
X23471Y59556D01*
X23524Y59359D01*
X23591Y59193D01*
X23674Y59057D01*
X23771Y58951D01*
X23884Y58875D01*
X24011Y58830D01*
X24154Y58815D01*
X21154D01*
X21296Y58830D01*
X21424Y58875D01*
X21536Y58951D01*
X21633Y59057D01*
X21716Y59193D01*
X21783Y59359D01*
X21836Y59556D01*
X21874Y59782D01*
X21896Y60039D01*
X21904Y60327D01*
X23404D01*
X23411Y60039D01*
D02*
G37*
G36*
X24216Y57066D02*
X24261Y56939D01*
X24336Y56826D01*
X24441Y56729D01*
X24576Y56646D01*
X24741Y56579D01*
X24936Y56526D01*
X25161Y56489D01*
X25416Y56466D01*
X25701Y56459D01*
Y54959D01*
X25416Y54960D01*
X24336Y55033D01*
X24261Y55056D01*
X24216Y55082D01*
X24201Y55110D01*
Y57209D01*
X24216Y57066D01*
D02*
G37*
G36*
X28752Y54540D02*
X28737Y54619D01*
X28692Y54690D01*
X28617Y54753D01*
X28512Y54808D01*
X28377Y54854D01*
X28212Y54892D01*
X28017Y54921D01*
X27792Y54942D01*
X27252Y54959D01*
Y56459D01*
X27537Y56463D01*
X28017Y56496D01*
X28212Y56526D01*
X28377Y56563D01*
X28512Y56609D01*
X28617Y56664D01*
X28692Y56727D01*
X28737Y56798D01*
X28752Y56878D01*
Y54540D01*
D02*
G37*
G36*
X33542Y54536D02*
X33415Y54491D01*
X33303Y54416D01*
X33205Y54310D01*
X33123Y54174D01*
X33055Y54007D01*
X33003Y53811D01*
X32965Y53584D01*
X32943Y53327D01*
X32935Y53040D01*
X31435D01*
X31428Y53327D01*
X31405Y53584D01*
X31367Y53811D01*
X31315Y54007D01*
X31248Y54174D01*
X31165Y54310D01*
X31067Y54416D01*
X30955Y54491D01*
X30828Y54536D01*
X30685Y54552D01*
X33685D01*
X33542Y54536D01*
D02*
G37*
G36*
X32943Y46378D02*
X32965Y46121D01*
X33003Y45894D01*
X33055Y45698D01*
X33123Y45531D01*
X33205Y45395D01*
X33303Y45289D01*
X33415Y45214D01*
X33542Y45168D01*
X33685Y45153D01*
X30685D01*
X30828Y45168D01*
X30955Y45214D01*
X31067Y45289D01*
X31165Y45395D01*
X31248Y45531D01*
X31315Y45698D01*
X31367Y45894D01*
X31405Y46121D01*
X31428Y46378D01*
X31435Y46665D01*
X32935D01*
X32943Y46378D01*
D02*
G37*
G36*
X22945Y43276D02*
X23019Y43273D01*
X23275Y43270D01*
Y41770D01*
X23140Y41769D01*
X22945Y41756D01*
Y41228D01*
X22932Y41331D01*
X22893Y41423D01*
X22829Y41504D01*
X22738Y41575D01*
X22622Y41634D01*
X22480Y41683D01*
X22312Y41721D01*
X22118Y41748D01*
X21899Y41764D01*
X21654Y41770D01*
Y43270D01*
X21899Y43275D01*
X22312Y43318D01*
X22480Y43356D01*
X22622Y43405D01*
X22738Y43465D01*
X22829Y43535D01*
X22893Y43616D01*
X22932Y43708D01*
X22945Y43811D01*
Y43276D01*
D02*
G37*
G36*
X28010Y36714D02*
X27955Y36707D01*
X27895Y36690D01*
X27831Y36665D01*
X27763Y36630D01*
X27691Y36586D01*
X27615Y36532D01*
X27450Y36397D01*
X27361Y36316D01*
X27268Y36226D01*
X26690Y36762D01*
X26753Y36829D01*
X26807Y36894D01*
X26851Y36958D01*
X26886Y37021D01*
X26912Y37081D01*
X26928Y37141D01*
X26935Y37198D01*
X26932Y37254D01*
X26920Y37309D01*
X26898Y37361D01*
X28010Y36714D01*
D02*
G37*
G36*
X27366Y35764D02*
X27378Y35630D01*
X27398Y35512D01*
X27425Y35409D01*
X27461Y35323D01*
X27504Y35252D01*
X27555Y35197D01*
X27614Y35157D01*
X27681Y35134D01*
X27756Y35126D01*
X26181D01*
X26256Y35134D01*
X26323Y35157D01*
X26382Y35197D01*
X26433Y35252D01*
X26476Y35323D01*
X26512Y35409D01*
X26539Y35512D01*
X26559Y35630D01*
X26571Y35764D01*
X26575Y35913D01*
X27362D01*
X27366Y35764D01*
D02*
G37*
G36*
X7331Y21662D02*
X7197Y21614D01*
X7079Y21535D01*
X6976Y21424D01*
X6890Y21281D01*
X6819Y21106D01*
X6764Y20900D01*
X6724Y20662D01*
X6701Y20392D01*
X6693Y20091D01*
X5118D01*
X5110Y20392D01*
X5087Y20662D01*
X5047Y20900D01*
X4992Y21106D01*
X4921Y21281D01*
X4835Y21424D01*
X4732Y21535D01*
X4614Y21614D01*
X4480Y21662D01*
X4331Y21678D01*
X7480D01*
X7331Y21662D01*
D02*
G37*
G36*
X6732Y16493D02*
X5079Y16493D01*
X5086Y16508D01*
X5093Y16535D01*
X5099Y16576D01*
X5108Y16699D01*
X5118Y17104D01*
X5118Y17239D01*
X6693Y17239D01*
X6732Y16493D01*
D02*
G37*
D10*
X41732Y47638D02*
Y51968D01*
D12*
X69291Y32021D02*
Y38976D01*
X69816Y31496D02*
X69882D01*
X69291Y32021D02*
X69816Y31496D01*
X66929Y63681D02*
Y70669D01*
Y63681D02*
X77264Y53347D01*
X42913Y40748D02*
X53150Y50984D01*
X81104D01*
X87212Y57092D01*
X57146Y72736D02*
X64862D01*
X51811Y67402D02*
X57146Y72736D01*
X64862D02*
X66929Y70669D01*
X65551Y18996D02*
X69980Y14567D01*
X65551Y18996D02*
X69095D01*
X57874Y23622D02*
X66437D01*
X69980Y27165D01*
X69193Y39075D02*
X69291Y38976D01*
X61713Y39075D02*
X69193D01*
X69095Y18996D02*
X73032Y22933D01*
X84350D01*
X42913Y33071D02*
Y40748D01*
X54232Y49311D02*
X79665D01*
X45669Y30610D02*
Y40748D01*
X54232Y49311D01*
X27953Y37468D02*
Y37894D01*
X26969Y36483D02*
X27953Y37468D01*
X26969Y33563D02*
Y36483D01*
X73819Y14567D02*
X74606D01*
X69980D02*
X73819D01*
X79665Y49311D02*
X81417Y47559D01*
X53839Y30020D02*
X57646Y26212D01*
Y23850D02*
X57874Y23622D01*
X57646Y23850D02*
Y26212D01*
X81417Y47559D02*
X87087D01*
X53839Y30020D02*
Y30413D01*
X79921Y20177D02*
X82539Y17559D01*
X79724Y20374D02*
X79921Y20177D01*
X87212Y57092D02*
Y57299D01*
X30512Y68701D02*
X31811Y67402D01*
X26969Y33563D02*
X26969Y33563D01*
X79921Y14567D02*
Y20177D01*
X87087Y25669D02*
Y27559D01*
X84350Y22933D02*
X87087Y25669D01*
X74311Y20374D02*
X79724D01*
X82539Y17559D02*
X87087D01*
D13*
X79921Y14567D02*
D03*
X73819D02*
D03*
X57087Y56102D02*
D03*
X51181D02*
D03*
X16732Y56968D02*
D03*
X22638D02*
D03*
X51968Y23622D02*
D03*
X57874D02*
D03*
D24*
X47539D02*
X51968D01*
X31811Y67402D02*
X36909Y62303D01*
X48819D01*
X50197Y60925D01*
X41732Y51968D02*
X47343D01*
X50197Y54823D02*
Y60925D01*
X47343Y51968D02*
X50197Y54823D01*
D25*
X57087Y56102D02*
Y59744D01*
X73721Y44882D02*
X74016Y44587D01*
X69291Y44882D02*
X73721D01*
X64764D02*
X69291D01*
X64764Y44882D02*
X64764Y44882D01*
X47441Y23524D02*
X47539Y23622D01*
X5906Y15650D02*
Y15748D01*
X5906Y15748D02*
X5906Y15748D01*
X5906Y15748D02*
Y23228D01*
D27*
X22654Y56972D02*
Y66559D01*
X21811Y67402D02*
X22654Y66559D01*
X23031Y56595D02*
X23917Y55709D01*
X32283D01*
X32185Y55610D02*
X32283Y55709D01*
X32185Y42520D02*
Y55610D01*
X21654Y42520D02*
X24508D01*
D28*
X87087Y17559D02*
D03*
D29*
Y27559D02*
D03*
Y37559D02*
D03*
Y47559D02*
D03*
Y57559D02*
D03*
X21811Y7402D02*
D03*
X31811D02*
D03*
X41811D02*
D03*
X51811D02*
D03*
X61811D02*
D03*
X71811D02*
D03*
X81811D02*
D03*
X71811Y67402D02*
D03*
X61811D02*
D03*
X51811D02*
D03*
X41811D02*
D03*
X31811D02*
D03*
X21811D02*
D03*
X11811D02*
D03*
D30*
Y7402D02*
D03*
X81811Y67402D02*
D03*
D31*
X57087Y59744D02*
D03*
X77264Y53347D02*
D03*
X85446Y11740D02*
D03*
X3457Y2980D02*
D03*
X4934Y9476D02*
D03*
X90564Y11543D02*
D03*
X91154Y3472D02*
D03*
X56849Y11272D02*
D03*
X42520Y22835D02*
D03*
X65354Y19291D02*
D03*
X69980Y27165D02*
D03*
X69882Y31004D02*
D03*
X5906Y15650D02*
D03*
X45768Y25197D02*
D03*
X27953Y37894D02*
D03*
X45669Y30610D02*
D03*
X42913Y33071D02*
D03*
X29232Y60630D02*
D03*
X17323Y63878D02*
D03*
X4035Y70866D02*
D03*
X3937Y61713D02*
D03*
X44094Y55709D02*
D03*
X25492Y49803D02*
D03*
X22343Y25197D02*
D03*
X36909Y3543D02*
D03*
X76181D02*
D03*
X66831D02*
D03*
X56988D02*
D03*
X21752Y32283D02*
D03*
X74311Y20374D02*
D03*
X34055Y18602D02*
D03*
X21654Y42520D02*
D03*
D32*
X53839Y39075D02*
D03*
X61713D02*
D03*
X53839Y30413D02*
D03*
X61713D02*
D03*
D33*
X5906Y29331D02*
D03*
Y23228D02*
D03*
X69291Y44882D02*
D03*
Y38976D02*
D03*
X26969Y27657D02*
D03*
Y33563D02*
D03*
D34*
X24508Y42520D02*
D03*
X32185D02*
D03*
D35*
X41732Y59449D02*
D03*
Y51968D02*
D03*
X32283Y55709D02*
D03*
D36*
X40723Y19291D02*
X65256D01*
X38878Y21136D02*
Y44783D01*
Y21136D02*
X40723Y19291D01*
X38878Y44783D02*
X41732Y47638D01*
D37*
X55020Y14567D02*
X60433D01*
M02*
