G04*
G04 #@! TF.GenerationSoftware,Altium Limited,Altium Designer,22.4.2 (48)*
G04*
G04 Layer_Color=16711935*
%FSLAX25Y25*%
%MOIN*%
G70*
G04*
G04 #@! TF.SameCoordinates,0592E0CC-BA3F-4339-BE53-95EDDC47ECB4*
G04*
G04*
G04 #@! TF.FilePolarity,Positive*
G04*
G01*
G75*
%ADD42C,0.00394*%
%ADD43C,0.00600*%
D42*
X0Y-8957D02*
X4724Y-7382D01*
X0Y-8957D02*
X4724Y-10531D01*
X89764D02*
X94488Y-8957D01*
X89764Y-7382D02*
X94488Y-8957D01*
X0D02*
X26365D01*
X66136D02*
X94488D01*
X0Y-9350D02*
Y-394D01*
X94488Y-9350D02*
Y-394D01*
X-8366Y74803D02*
X-6791Y70079D01*
X-9941D02*
X-8366Y74803D01*
X-9941Y4724D02*
X-8366Y0D01*
X-6791Y4724D01*
X-8366Y55900D02*
Y74803D01*
Y0D02*
Y16916D01*
X-8760Y74803D02*
X-394D01*
X-8760Y0D02*
X-394D01*
D43*
X30507Y-11918D02*
X27359D01*
X30507Y-8770D01*
Y-7982D01*
X29720Y-7195D01*
X28146D01*
X27359Y-7982D01*
X34443Y-11918D02*
Y-7195D01*
X32082Y-9557D01*
X35230D01*
X36805Y-11918D02*
Y-11131D01*
X37592D01*
Y-11918D01*
X36805D01*
X40740Y-7982D02*
X41528Y-7195D01*
X43102D01*
X43889Y-7982D01*
Y-11131D01*
X43102Y-11918D01*
X41528D01*
X40740Y-11131D01*
Y-7982D01*
X45463D02*
X46250Y-7195D01*
X47825D01*
X48612Y-7982D01*
Y-11131D01*
X47825Y-11918D01*
X46250D01*
X45463Y-11131D01*
Y-7982D01*
X51760Y-11918D02*
X50186Y-10344D01*
Y-8770D01*
X51760Y-7195D01*
X54122Y-11918D02*
Y-8770D01*
X54909D01*
X55696Y-9557D01*
Y-11918D01*
Y-9557D01*
X56483Y-8770D01*
X57270Y-9557D01*
Y-11918D01*
X58845D02*
Y-8770D01*
X59632D01*
X60419Y-9557D01*
Y-11918D01*
Y-9557D01*
X61206Y-8770D01*
X61993Y-9557D01*
Y-11918D01*
X63568D02*
X65142Y-10344D01*
Y-8770D01*
X63568Y-7195D01*
X-5405Y17910D02*
Y19484D01*
Y18697D01*
X-10128D01*
X-9340Y17910D01*
X-6192Y21846D02*
X-5405Y22633D01*
Y24207D01*
X-6192Y24994D01*
X-9340D01*
X-10128Y24207D01*
Y22633D01*
X-9340Y21846D01*
X-8553D01*
X-7766Y22633D01*
Y24994D01*
X-5405Y26568D02*
X-6192D01*
Y27356D01*
X-5405D01*
Y26568D01*
X-9340Y30504D02*
X-10128Y31291D01*
Y32866D01*
X-9340Y33653D01*
X-6192D01*
X-5405Y32866D01*
Y31291D01*
X-6192Y30504D01*
X-9340D01*
Y35227D02*
X-10128Y36014D01*
Y37589D01*
X-9340Y38376D01*
X-6192D01*
X-5405Y37589D01*
Y36014D01*
X-6192Y35227D01*
X-9340D01*
X-5405Y41524D02*
X-6979Y39950D01*
X-8553D01*
X-10128Y41524D01*
X-5405Y43886D02*
X-8553D01*
Y44673D01*
X-7766Y45460D01*
X-5405D01*
X-7766D01*
X-8553Y46247D01*
X-7766Y47034D01*
X-5405D01*
Y48609D02*
X-8553D01*
Y49396D01*
X-7766Y50183D01*
X-5405D01*
X-7766D01*
X-8553Y50970D01*
X-7766Y51757D01*
X-5405D01*
Y53332D02*
X-6979Y54906D01*
X-8553D01*
X-10128Y53332D01*
M02*
