G04*
G04 #@! TF.GenerationSoftware,Altium Limited,Altium Designer,22.4.2 (48)*
G04*
G04 Layer_Physical_Order=1*
G04 Layer_Color=255*
%FSLAX25Y25*%
%MOIN*%
G70*
G04*
G04 #@! TF.SameCoordinates,0592E0CC-BA3F-4339-BE53-95EDDC47ECB4*
G04*
G04*
G04 #@! TF.FilePolarity,Positive*
G04*
G01*
G75*
%ADD10C,0.02362*%
%ADD12C,0.00787*%
%ADD13R,0.03150X0.03740*%
%ADD14O,0.09449X0.01772*%
%ADD15R,0.07480X0.07087*%
%ADD16R,0.05315X0.01575*%
%ADD17R,0.06299X0.08268*%
%ADD18R,0.07480X0.07480*%
%ADD24C,0.01968*%
%ADD25C,0.01575*%
%ADD26C,0.01000*%
%ADD27C,0.01500*%
%ADD28R,0.05906X0.05906*%
%ADD29C,0.05906*%
%ADD30R,0.05906X0.05906*%
%ADD31C,0.02362*%
G36*
X82524Y64453D02*
X82457Y64429D01*
X82398Y64390D01*
X82346Y64335D01*
X82303Y64264D01*
X82268Y64177D01*
X82240Y64075D01*
X82221Y63957D01*
X82209Y63823D01*
X82205Y63673D01*
X81417D01*
X81413Y63823D01*
X81402Y63957D01*
X81382Y64075D01*
X81354Y64177D01*
X81319Y64264D01*
X81276Y64335D01*
X81224Y64390D01*
X81165Y64429D01*
X81098Y64453D01*
X81024Y64461D01*
X82598D01*
X82524Y64453D01*
D02*
G37*
G36*
X73560Y64972D02*
X73025Y64371D01*
X72807Y64091D01*
X72623Y63826D01*
X72472Y63573D01*
X72355Y63335D01*
X72272Y63111D01*
X72221Y62900D01*
X72205Y62704D01*
X71417D01*
X71401Y62900D01*
X71350Y63111D01*
X71267Y63335D01*
X71150Y63573D01*
X70999Y63826D01*
X70815Y64091D01*
X70597Y64371D01*
X70062Y64972D01*
X69744Y65293D01*
X73878D01*
X73560Y64972D01*
D02*
G37*
G36*
X63841Y65258D02*
X63521Y64944D01*
X62981Y64356D01*
X62762Y64081D01*
X62576Y63819D01*
X62424Y63569D01*
X62306Y63332D01*
X62222Y63108D01*
X62171Y62896D01*
X62154Y62697D01*
X61367Y62711D01*
X61350Y62905D01*
X61300Y63115D01*
X61217Y63339D01*
X61101Y63579D01*
X60952Y63833D01*
X60770Y64102D01*
X60554Y64386D01*
X60023Y65000D01*
X59708Y65329D01*
X63841Y65258D01*
D02*
G37*
G36*
X77252Y52165D02*
X77133Y52163D01*
X77018Y52152D01*
X76907Y52133D01*
X76801Y52107D01*
X76699Y52072D01*
X76601Y52029D01*
X76508Y51979D01*
X76419Y51920D01*
X76334Y51854D01*
X76254Y51780D01*
X75697Y52336D01*
X75771Y52417D01*
X75838Y52502D01*
X75896Y52591D01*
X75947Y52684D01*
X75989Y52782D01*
X76024Y52884D01*
X76051Y52990D01*
X76069Y53101D01*
X76080Y53215D01*
X76083Y53335D01*
X77252Y52165D01*
D02*
G37*
G36*
X11626Y49591D02*
X11616Y49686D01*
X11586Y49771D01*
X11536Y49845D01*
X11466Y49911D01*
X11376Y49966D01*
X11266Y50011D01*
X11136Y50046D01*
X10986Y50071D01*
X10816Y50086D01*
X10630Y50090D01*
X10444Y50086D01*
X10274Y50072D01*
X10124Y50048D01*
X9994Y50015D01*
X9884Y49973D01*
X9794Y49920D01*
X9724Y49859D01*
X9674Y49788D01*
X9644Y49708D01*
X9634Y49618D01*
X9622Y51591D01*
X9632Y51496D01*
X9663Y51411D01*
X9714Y51336D01*
X9785Y51271D01*
X9876Y51215D01*
X9987Y51170D01*
X10119Y51136D01*
X10270Y51111D01*
X10442Y51095D01*
X10630Y51091D01*
X10816Y51095D01*
X10986Y51111D01*
X11136Y51136D01*
X11266Y51170D01*
X11376Y51215D01*
X11466Y51271D01*
X11536Y51336D01*
X11586Y51411D01*
X11616Y51496D01*
X11626Y51591D01*
Y49591D01*
D02*
G37*
G36*
X6810Y49620D02*
X6725Y49590D01*
X6650Y49539D01*
X6585Y49468D01*
X6531Y49377D01*
X6486Y49266D01*
X6451Y49134D01*
X6425Y48983D01*
X6410Y48811D01*
X6406Y48618D01*
X5406D01*
X5401Y48811D01*
X5385Y48983D01*
X5361Y49134D01*
X5325Y49266D01*
X5280Y49377D01*
X5226Y49468D01*
X5161Y49539D01*
X5085Y49590D01*
X5001Y49620D01*
X4905Y49630D01*
X6905D01*
X6810Y49620D01*
D02*
G37*
G36*
X66837Y49622D02*
X66872Y49557D01*
X66932Y49499D01*
X67015Y49449D01*
X67122Y49407D01*
X67252Y49372D01*
X67407Y49346D01*
X67585Y49326D01*
X68012Y49311D01*
Y48524D01*
X67787Y48520D01*
X67407Y48489D01*
X67252Y48462D01*
X67122Y48428D01*
X67015Y48386D01*
X66932Y48336D01*
X66872Y48278D01*
X66837Y48213D01*
X66825Y48140D01*
Y49695D01*
X66837Y49622D01*
D02*
G37*
G36*
X39278D02*
X39313Y49557D01*
X39373Y49499D01*
X39456Y49449D01*
X39563Y49407D01*
X39693Y49372D01*
X39848Y49346D01*
X40026Y49326D01*
X40453Y49311D01*
Y48524D01*
X40228Y48520D01*
X39848Y48489D01*
X39693Y48462D01*
X39563Y48428D01*
X39456Y48386D01*
X39373Y48336D01*
X39313Y48278D01*
X39278Y48213D01*
X39266Y48140D01*
Y49695D01*
X39278Y49622D01*
D02*
G37*
G36*
X6410Y46662D02*
X6425Y46490D01*
X6451Y46338D01*
X6486Y46207D01*
X6531Y46095D01*
X6585Y46004D01*
X6650Y45933D01*
X6725Y45883D01*
X6810Y45852D01*
X6905Y45842D01*
X4905D01*
X5001Y45852D01*
X5085Y45883D01*
X5161Y45933D01*
X5226Y46004D01*
X5280Y46095D01*
X5325Y46207D01*
X5361Y46338D01*
X5385Y46490D01*
X5401Y46662D01*
X5406Y46854D01*
X6406D01*
X6410Y46662D01*
D02*
G37*
G36*
X66837Y47063D02*
X66872Y46997D01*
X66932Y46940D01*
X67015Y46890D01*
X67122Y46848D01*
X67252Y46813D01*
X67407Y46786D01*
X67585Y46767D01*
X68012Y46752D01*
Y45965D01*
X67787Y45961D01*
X67407Y45930D01*
X67252Y45903D01*
X67122Y45869D01*
X67015Y45826D01*
X66932Y45777D01*
X66872Y45719D01*
X66837Y45654D01*
X66825Y45581D01*
Y47136D01*
X66837Y47063D01*
D02*
G37*
G36*
X59350Y73032D02*
Y70531D01*
X58648Y69829D01*
X58128Y68927D01*
X57858Y67922D01*
Y66881D01*
X58128Y65876D01*
X58648Y64974D01*
X59350Y64272D01*
Y58691D01*
X58064Y57405D01*
X54232D01*
X53772Y57313D01*
X53381Y57052D01*
X53381Y57052D01*
X47313Y50984D01*
X31201D01*
X30906Y50689D01*
Y50565D01*
X30548Y50494D01*
X29994Y50124D01*
X29625Y49570D01*
X29495Y48917D01*
X29625Y48265D01*
X29994Y47711D01*
Y47565D01*
X29625Y47011D01*
X29495Y46358D01*
X29625Y45705D01*
X29994Y45152D01*
Y45006D01*
X29625Y44452D01*
X29612Y44390D01*
X22283D01*
X22045Y44488D01*
X21262D01*
X21024Y44390D01*
X20472D01*
X20177Y44685D01*
Y56595D01*
X20079Y56693D01*
X10433D01*
Y57480D01*
X1476D01*
Y73327D01*
X59055D01*
X59350Y73032D01*
D02*
G37*
G36*
X20810Y41693D02*
X20789Y41708D01*
X20755Y41721D01*
X20708Y41732D01*
X20650Y41742D01*
X20494Y41757D01*
X20346Y41764D01*
X19181Y41744D01*
Y43295D01*
X19196Y43290D01*
X19241Y43286D01*
X19421Y43279D01*
X20206Y43273D01*
X20708Y43307D01*
X20755Y43319D01*
X20789Y43332D01*
X20810Y43346D01*
X20810Y41693D01*
D02*
G37*
G36*
X66837Y44504D02*
X66872Y44438D01*
X66932Y44381D01*
X67015Y44331D01*
X67122Y44289D01*
X67252Y44254D01*
X67407Y44227D01*
X67585Y44208D01*
X68012Y44193D01*
Y43406D01*
X67787Y43402D01*
X67407Y43371D01*
X67252Y43344D01*
X67122Y43310D01*
X67015Y43267D01*
X66932Y43218D01*
X66872Y43160D01*
X66837Y43095D01*
X66825Y43022D01*
Y44577D01*
X66837Y44504D01*
D02*
G37*
G36*
X39278D02*
X39313Y44438D01*
X39373Y44381D01*
X39456Y44331D01*
X39563Y44289D01*
X39693Y44254D01*
X39848Y44227D01*
X40026Y44208D01*
X40453Y44193D01*
Y43406D01*
X40228Y43402D01*
X39848Y43371D01*
X39693Y43344D01*
X39563Y43310D01*
X39456Y43267D01*
X39373Y43218D01*
X39313Y43160D01*
X39278Y43095D01*
X39266Y43022D01*
Y44577D01*
X39278Y44504D01*
D02*
G37*
G36*
X58372Y40463D02*
X58360Y40536D01*
X58325Y40601D01*
X58265Y40658D01*
X58182Y40708D01*
X58075Y40751D01*
X57945Y40785D01*
X57790Y40812D01*
X57612Y40831D01*
X57185Y40846D01*
Y41634D01*
X57410Y41638D01*
X57790Y41668D01*
X57945Y41695D01*
X58075Y41730D01*
X58182Y41772D01*
X58265Y41822D01*
X58325Y41879D01*
X58360Y41945D01*
X58372Y42018D01*
Y40463D01*
D02*
G37*
G36*
X39278Y41945D02*
X39313Y41879D01*
X39373Y41822D01*
X39456Y41772D01*
X39563Y41730D01*
X39693Y41695D01*
X39848Y41668D01*
X40026Y41649D01*
X40453Y41634D01*
Y40846D01*
X40228Y40843D01*
X39848Y40812D01*
X39693Y40785D01*
X39563Y40751D01*
X39456Y40708D01*
X39373Y40658D01*
X39313Y40601D01*
X39278Y40536D01*
X39266Y40463D01*
Y42018D01*
X39278Y41945D01*
D02*
G37*
G36*
X19189Y40663D02*
X19212Y40599D01*
X19252Y40541D01*
X19307Y40492D01*
X19378Y40450D01*
X19464Y40415D01*
X19567Y40389D01*
X19685Y40370D01*
X19819Y40358D01*
X19968Y40354D01*
Y39567D01*
X19819Y39563D01*
X19685Y39552D01*
X19567Y39533D01*
X19464Y39506D01*
X19378Y39472D01*
X19307Y39430D01*
X19252Y39380D01*
X19212Y39323D01*
X19189Y39258D01*
X19181Y39185D01*
Y40736D01*
X19189Y40663D01*
D02*
G37*
G36*
X58372Y37904D02*
X58360Y37977D01*
X58325Y38042D01*
X58265Y38099D01*
X58182Y38149D01*
X58075Y38192D01*
X57945Y38226D01*
X57790Y38253D01*
X57612Y38272D01*
X57185Y38287D01*
Y39075D01*
X57410Y39079D01*
X57790Y39109D01*
X57945Y39136D01*
X58075Y39171D01*
X58182Y39213D01*
X58265Y39263D01*
X58325Y39320D01*
X58360Y39386D01*
X58372Y39459D01*
Y37904D01*
D02*
G37*
G36*
X39278Y39386D02*
X39313Y39320D01*
X39373Y39263D01*
X39456Y39213D01*
X39563Y39171D01*
X39693Y39136D01*
X39848Y39109D01*
X40026Y39090D01*
X40453Y39075D01*
Y38287D01*
X40228Y38284D01*
X39848Y38253D01*
X39693Y38226D01*
X39563Y38192D01*
X39456Y38149D01*
X39373Y38099D01*
X39313Y38042D01*
X39278Y37977D01*
X39266Y37904D01*
Y39459D01*
X39278Y39386D01*
D02*
G37*
G36*
X19189Y38105D02*
X19212Y38040D01*
X19252Y37982D01*
X19307Y37933D01*
X19378Y37891D01*
X19464Y37856D01*
X19567Y37830D01*
X19685Y37811D01*
X19819Y37799D01*
X19968Y37795D01*
Y37008D01*
X19819Y37004D01*
X19685Y36993D01*
X19567Y36974D01*
X19464Y36947D01*
X19378Y36913D01*
X19307Y36871D01*
X19252Y36821D01*
X19212Y36764D01*
X19189Y36699D01*
X19181Y36626D01*
Y38177D01*
X19189Y38105D01*
D02*
G37*
G36*
X6810Y38400D02*
X6725Y38369D01*
X6650Y38319D01*
X6585Y38248D01*
X6531Y38157D01*
X6486Y38045D01*
X6451Y37914D01*
X6425Y37762D01*
X6410Y37590D01*
X6406Y37402D01*
X6410Y37213D01*
X6425Y37041D01*
X6451Y36889D01*
X6486Y36758D01*
X6531Y36646D01*
X6585Y36555D01*
X6650Y36484D01*
X6725Y36434D01*
X6810Y36403D01*
X6905Y36393D01*
X4905D01*
X5001Y36403D01*
X5085Y36434D01*
X5161Y36484D01*
X5226Y36555D01*
X5280Y36646D01*
X5325Y36758D01*
X5361Y36889D01*
X5385Y37041D01*
X5401Y37213D01*
X5405Y37402D01*
X5401Y37590D01*
X5385Y37762D01*
X5361Y37914D01*
X5325Y38045D01*
X5280Y38157D01*
X5226Y38248D01*
X5161Y38319D01*
X5085Y38369D01*
X5001Y38400D01*
X4905Y38410D01*
X6905D01*
X6810Y38400D01*
D02*
G37*
G36*
X28697Y36964D02*
X28624Y36875D01*
X28559Y36784D01*
X28502Y36690D01*
X28455Y36593D01*
X28416Y36494D01*
X28385Y36392D01*
X28364Y36288D01*
X28351Y36181D01*
X28346Y36072D01*
X27559D01*
X27555Y36181D01*
X27542Y36288D01*
X27520Y36392D01*
X27490Y36494D01*
X27451Y36593D01*
X27403Y36690D01*
X27347Y36784D01*
X27282Y36875D01*
X27208Y36964D01*
X27126Y37050D01*
X28780D01*
X28697Y36964D01*
D02*
G37*
G36*
X66837Y36827D02*
X66872Y36761D01*
X66932Y36704D01*
X67015Y36654D01*
X67122Y36612D01*
X67252Y36577D01*
X67407Y36550D01*
X67585Y36531D01*
X68012Y36516D01*
Y35728D01*
X67787Y35724D01*
X67407Y35694D01*
X67252Y35667D01*
X67122Y35632D01*
X67015Y35590D01*
X66932Y35540D01*
X66872Y35483D01*
X66837Y35418D01*
X66825Y35345D01*
Y36900D01*
X66837Y36827D01*
D02*
G37*
G36*
X39278D02*
X39313Y36761D01*
X39373Y36704D01*
X39456Y36654D01*
X39563Y36612D01*
X39693Y36577D01*
X39848Y36550D01*
X40026Y36531D01*
X40453Y36516D01*
Y35728D01*
X40228Y35724D01*
X39848Y35694D01*
X39693Y35667D01*
X39563Y35632D01*
X39456Y35590D01*
X39373Y35540D01*
X39313Y35483D01*
X39278Y35418D01*
X39266Y35345D01*
Y36900D01*
X39278Y36827D01*
D02*
G37*
G36*
X66837Y34268D02*
X66872Y34202D01*
X66932Y34145D01*
X67015Y34095D01*
X67122Y34053D01*
X67252Y34018D01*
X67407Y33991D01*
X67585Y33972D01*
X68012Y33957D01*
Y33169D01*
X67787Y33165D01*
X67407Y33135D01*
X67252Y33108D01*
X67122Y33073D01*
X67015Y33031D01*
X66932Y32981D01*
X66872Y32924D01*
X66837Y32858D01*
X66825Y32786D01*
Y34340D01*
X66837Y34268D01*
D02*
G37*
G36*
X30813Y32786D02*
X30801Y32858D01*
X30766Y32924D01*
X30706Y32981D01*
X30623Y33031D01*
X30516Y33073D01*
X30386Y33108D01*
X30231Y33135D01*
X30053Y33154D01*
X29625Y33169D01*
Y33957D01*
X29851Y33961D01*
X30231Y33991D01*
X30386Y34018D01*
X30516Y34053D01*
X30623Y34095D01*
X30706Y34145D01*
X30766Y34202D01*
X30801Y34268D01*
X30813Y34340D01*
Y32786D01*
D02*
G37*
G36*
X42902Y31890D02*
X42783Y31887D01*
X42668Y31876D01*
X42557Y31858D01*
X42451Y31831D01*
X42349Y31796D01*
X42251Y31754D01*
X42158Y31703D01*
X42069Y31645D01*
X41984Y31578D01*
X41903Y31504D01*
X41346Y32061D01*
X41421Y32141D01*
X41487Y32226D01*
X41546Y32315D01*
X41596Y32409D01*
X41639Y32506D01*
X41673Y32608D01*
X41700Y32715D01*
X41719Y32825D01*
X41730Y32940D01*
X41732Y33059D01*
X42902Y31890D01*
D02*
G37*
G36*
X20909Y31457D02*
X20894Y31464D01*
X20866Y31471D01*
X20825Y31477D01*
X20703Y31486D01*
X20298Y31496D01*
X20163Y31496D01*
Y33071D01*
X20909Y33110D01*
Y31457D01*
D02*
G37*
G36*
X30805Y30232D02*
X30793Y30304D01*
X30758Y30368D01*
X30699Y30425D01*
X30617Y30474D01*
X30510Y30516D01*
X30381Y30550D01*
X30227Y30576D01*
X30050Y30595D01*
X29625Y30610D01*
Y31398D01*
X29850Y31401D01*
X30227Y31432D01*
X30381Y31458D01*
X30510Y31492D01*
X30617Y31534D01*
X30699Y31583D01*
X30758Y31640D01*
X30793Y31704D01*
X30805Y31776D01*
Y30232D01*
D02*
G37*
G36*
X66837Y31708D02*
X66872Y31643D01*
X66932Y31586D01*
X67015Y31536D01*
X67122Y31494D01*
X67252Y31459D01*
X67407Y31432D01*
X67585Y31413D01*
X68012Y31398D01*
Y30610D01*
X67787Y30606D01*
X67407Y30576D01*
X67252Y30549D01*
X67122Y30514D01*
X67015Y30472D01*
X66932Y30422D01*
X66872Y30365D01*
X66837Y30299D01*
X66825Y30226D01*
Y31781D01*
X66837Y31708D01*
D02*
G37*
G36*
X39278D02*
X39313Y31643D01*
X39373Y31586D01*
X39456Y31536D01*
X39563Y31494D01*
X39693Y31459D01*
X39848Y31432D01*
X40026Y31413D01*
X40453Y31398D01*
Y30610D01*
X40228Y30606D01*
X39848Y30576D01*
X39693Y30549D01*
X39563Y30514D01*
X39456Y30472D01*
X39373Y30422D01*
X39313Y30365D01*
X39278Y30299D01*
X39266Y30226D01*
Y31781D01*
X39278Y31708D01*
D02*
G37*
G36*
X69038Y30177D02*
X68952Y30259D01*
X68863Y30333D01*
X68772Y30398D01*
X68678Y30454D01*
X68581Y30502D01*
X68482Y30541D01*
X68381Y30571D01*
X68276Y30593D01*
X68169Y30606D01*
X68060Y30610D01*
X68060Y31398D01*
X68169Y31402D01*
X68276Y31415D01*
X68380Y31437D01*
X68482Y31467D01*
X68581Y31506D01*
X68678Y31554D01*
X68772Y31610D01*
X68863Y31675D01*
X68952Y31748D01*
X69038Y31831D01*
X69038Y30177D01*
D02*
G37*
G36*
X45658Y29429D02*
X45538Y29426D01*
X45423Y29416D01*
X45313Y29397D01*
X45207Y29370D01*
X45105Y29336D01*
X45007Y29293D01*
X44914Y29243D01*
X44824Y29184D01*
X44740Y29118D01*
X44659Y29043D01*
X44102Y29600D01*
X44177Y29681D01*
X44243Y29765D01*
X44302Y29855D01*
X44352Y29948D01*
X44395Y30046D01*
X44429Y30148D01*
X44456Y30254D01*
X44475Y30364D01*
X44486Y30479D01*
X44488Y30598D01*
X45658Y29429D01*
D02*
G37*
G36*
X6810Y28951D02*
X6725Y28921D01*
X6650Y28870D01*
X6585Y28799D01*
X6531Y28708D01*
X6486Y28597D01*
X6451Y28465D01*
X6425Y28313D01*
X6410Y28141D01*
X6406Y27949D01*
X5406D01*
X5401Y28141D01*
X5385Y28313D01*
X5361Y28465D01*
X5325Y28597D01*
X5280Y28708D01*
X5226Y28799D01*
X5161Y28870D01*
X5085Y28921D01*
X5001Y28951D01*
X4905Y28961D01*
X6905D01*
X6810Y28951D01*
D02*
G37*
G36*
X30759Y27704D02*
X30747Y27770D01*
X30713Y27829D01*
X30656Y27881D01*
X30577Y27926D01*
X30475Y27964D01*
X30351Y27996D01*
X30203Y28020D01*
X30033Y28037D01*
X29625Y28051D01*
Y28839D01*
X29841Y28842D01*
X30203Y28870D01*
X30351Y28894D01*
X30475Y28925D01*
X30577Y28964D01*
X30656Y29009D01*
X30713Y29061D01*
X30747Y29120D01*
X30759Y29186D01*
Y27704D01*
D02*
G37*
G36*
X66837Y29149D02*
X66872Y29084D01*
X66932Y29027D01*
X67015Y28977D01*
X67122Y28934D01*
X67252Y28900D01*
X67407Y28873D01*
X67585Y28854D01*
X68012Y28839D01*
Y28051D01*
X67787Y28047D01*
X67407Y28017D01*
X67252Y27990D01*
X67122Y27955D01*
X67015Y27913D01*
X66932Y27863D01*
X66872Y27806D01*
X66837Y27740D01*
X66825Y27667D01*
Y29222D01*
X66837Y29149D01*
D02*
G37*
G36*
X39278D02*
X39313Y29084D01*
X39373Y29027D01*
X39456Y28977D01*
X39563Y28934D01*
X39693Y28900D01*
X39848Y28873D01*
X40026Y28854D01*
X40453Y28839D01*
Y28051D01*
X40228Y28047D01*
X39848Y28017D01*
X39693Y27990D01*
X39563Y27955D01*
X39456Y27913D01*
X39373Y27863D01*
X39313Y27806D01*
X39278Y27740D01*
X39266Y27667D01*
Y29222D01*
X39278Y29149D01*
D02*
G37*
G36*
X68977Y28618D02*
X69063Y28552D01*
X69152Y28495D01*
X69245Y28447D01*
X69343Y28407D01*
X69444Y28377D01*
X69549Y28355D01*
X69658Y28342D01*
X69771Y28338D01*
X69889Y28343D01*
X68801Y27097D01*
X68791Y27218D01*
X68773Y27333D01*
X68748Y27445D01*
X68717Y27551D01*
X68678Y27654D01*
X68632Y27751D01*
X68580Y27844D01*
X68520Y27933D01*
X68453Y28017D01*
X68379Y28097D01*
X68896Y28694D01*
X68977Y28618D01*
D02*
G37*
G36*
X6410Y25993D02*
X6425Y25820D01*
X6451Y25669D01*
X6486Y25537D01*
X6531Y25426D01*
X6585Y25335D01*
X6650Y25264D01*
X6725Y25213D01*
X6810Y25183D01*
X6905Y25173D01*
X4905D01*
X5001Y25183D01*
X5085Y25213D01*
X5161Y25264D01*
X5226Y25335D01*
X5280Y25426D01*
X5325Y25537D01*
X5361Y25669D01*
X5385Y25820D01*
X5401Y25993D01*
X5406Y26185D01*
X6406D01*
X6410Y25993D01*
D02*
G37*
G36*
X11626Y23213D02*
X11616Y23308D01*
X11586Y23393D01*
X11536Y23468D01*
X11466Y23533D01*
X11376Y23588D01*
X11266Y23633D01*
X11136Y23668D01*
X10986Y23693D01*
X10816Y23708D01*
X10630Y23712D01*
X10442Y23708D01*
X10270Y23693D01*
X10119Y23668D01*
X9987Y23633D01*
X9876Y23588D01*
X9785Y23533D01*
X9714Y23468D01*
X9663Y23393D01*
X9632Y23308D01*
X9622Y23213D01*
X9634Y25185D01*
X9644Y25095D01*
X9674Y25015D01*
X9724Y24944D01*
X9794Y24883D01*
X9884Y24831D01*
X9994Y24788D01*
X10124Y24755D01*
X10274Y24732D01*
X10444Y24717D01*
X10630Y24713D01*
X10816Y24718D01*
X10986Y24733D01*
X11136Y24758D01*
X11266Y24793D01*
X11376Y24838D01*
X11466Y24893D01*
X11536Y24958D01*
X11586Y25033D01*
X11616Y25118D01*
X11626Y25213D01*
Y23213D01*
D02*
G37*
G36*
X64085Y24987D02*
X63917Y24928D01*
X63770Y24829D01*
X63642Y24690D01*
X63534Y24512D01*
X63445Y24294D01*
X63376Y24036D01*
X63327Y23739D01*
X63297Y23403D01*
X63287Y23026D01*
X61319D01*
X61309Y23403D01*
X61279Y23739D01*
X61230Y24036D01*
X61161Y24294D01*
X61073Y24512D01*
X60965Y24690D01*
X60837Y24829D01*
X60689Y24928D01*
X60522Y24987D01*
X60335Y25007D01*
X64272D01*
X64085Y24987D01*
D02*
G37*
G36*
X6438Y22905D02*
X7096Y23551D01*
X7803Y22844D01*
X6693Y21653D01*
X6136Y22210D01*
X5348D01*
X5359Y22237D01*
X5369Y22293D01*
X5378Y22380D01*
X5396Y22823D01*
X5406Y23837D01*
X6406D01*
X6438Y22905D01*
D02*
G37*
G36*
X75564Y21344D02*
X75510Y21289D01*
X75388Y21149D01*
X75361Y21110D01*
X75341Y21075D01*
X75327Y21045D01*
X75320Y21019D01*
X75320Y20996D01*
X75326Y20978D01*
X74554Y21530D01*
X74570Y21531D01*
X74594Y21540D01*
X74623Y21557D01*
X74659Y21583D01*
X74701Y21616D01*
X74865Y21763D01*
X75007Y21901D01*
X75564Y21344D01*
D02*
G37*
G36*
X66539Y19006D02*
X66585Y18331D01*
X66612Y18166D01*
X66646Y18031D01*
X66686Y17926D01*
X66732Y17851D01*
X66784Y17806D01*
X66843Y17791D01*
X63866D01*
X63924Y17806D01*
X63977Y17851D01*
X64023Y17926D01*
X64063Y18031D01*
X64096Y18166D01*
X64124Y18331D01*
X64146Y18526D01*
X64170Y19006D01*
X64173Y19291D01*
X66535D01*
X66539Y19006D01*
D02*
G37*
G36*
X7331Y18118D02*
X7197Y18071D01*
X7079Y17991D01*
X6976Y17880D01*
X6890Y17738D01*
X6819Y17563D01*
X6764Y17357D01*
X6724Y17119D01*
X6709Y16939D01*
X6732Y16493D01*
X5079D01*
X5086Y16508D01*
X5093Y16535D01*
X5099Y16576D01*
X5108Y16699D01*
X5111Y16818D01*
X5110Y16849D01*
X5087Y17119D01*
X5047Y17357D01*
X4992Y17563D01*
X4921Y17738D01*
X4835Y17880D01*
X4732Y17991D01*
X4614Y18071D01*
X4480Y18118D01*
X4331Y18134D01*
X7480D01*
X7331Y18118D01*
D02*
G37*
G36*
X29098Y27332D02*
X29274Y27297D01*
X29518Y26761D01*
X29424Y26622D01*
X29377Y26386D01*
X35039D01*
X40715D01*
X41044Y26870D01*
X47024D01*
Y21562D01*
X41824Y16362D01*
X19882D01*
Y27559D01*
X28759D01*
X29098Y27332D01*
D02*
G37*
G36*
X12209Y10978D02*
X12220Y10842D01*
X12240Y10722D01*
X12268Y10618D01*
X12303Y10530D01*
X12347Y10458D01*
X12398Y10402D01*
X12457Y10362D01*
X12524Y10338D01*
X12598Y10330D01*
X11024D01*
X11098Y10338D01*
X11165Y10362D01*
X11224Y10402D01*
X11276Y10458D01*
X11319Y10530D01*
X11354Y10618D01*
X11382Y10722D01*
X11402Y10842D01*
X11413Y10978D01*
X11417Y11130D01*
X12205D01*
X12209Y10978D01*
D02*
G37*
G36*
X22216Y11466D02*
X22251Y11266D01*
X22308Y11074D01*
X22388Y10888D01*
X22491Y10709D01*
X22617Y10537D01*
X22766Y10373D01*
X22938Y10215D01*
X23132Y10065D01*
X23350Y9922D01*
X20272D01*
X20490Y10065D01*
X20685Y10215D01*
X20856Y10373D01*
X21005Y10537D01*
X21131Y10709D01*
X21234Y10888D01*
X21314Y11074D01*
X21372Y11266D01*
X21406Y11466D01*
X21417Y11673D01*
X22205D01*
X22216Y11466D01*
D02*
G37*
G36*
X82222Y11903D02*
X82272Y11692D01*
X82355Y11468D01*
X82472Y11230D01*
X82623Y10978D01*
X82807Y10712D01*
X83025Y10432D01*
X83560Y9831D01*
X83878Y9510D01*
X79744D01*
X80062Y9831D01*
X80597Y10432D01*
X80815Y10712D01*
X80999Y10978D01*
X81150Y11230D01*
X81267Y11468D01*
X81350Y11692D01*
X81401Y11903D01*
X81417Y12100D01*
X82205D01*
X82222Y11903D01*
D02*
G37*
G36*
X52222D02*
X52272Y11692D01*
X52355Y11468D01*
X52472Y11230D01*
X52623Y10978D01*
X52807Y10712D01*
X53025Y10432D01*
X53560Y9831D01*
X53878Y9510D01*
X49744D01*
X50062Y9831D01*
X50597Y10432D01*
X50815Y10712D01*
X50999Y10978D01*
X51150Y11230D01*
X51267Y11468D01*
X51350Y11692D01*
X51401Y11903D01*
X51417Y12100D01*
X52205D01*
X52222Y11903D01*
D02*
G37*
G36*
X75411Y10445D02*
X75284Y10294D01*
X75171Y10110D01*
X75071Y9892D01*
X74986Y9641D01*
X74914Y9356D01*
X74856Y9038D01*
X74812Y8686D01*
X74766Y7883D01*
X74764Y7431D01*
X71841Y10354D01*
X72292Y10356D01*
X73096Y10403D01*
X73447Y10447D01*
X73765Y10504D01*
X74050Y10576D01*
X74301Y10662D01*
X74519Y10761D01*
X74704Y10875D01*
X74855Y11002D01*
X75411Y10445D01*
D02*
G37*
G36*
X65411D02*
X65284Y10294D01*
X65171Y10110D01*
X65071Y9892D01*
X64986Y9641D01*
X64914Y9356D01*
X64856Y9038D01*
X64812Y8686D01*
X64766Y7883D01*
X64764Y7431D01*
X61840Y10354D01*
X62292Y10356D01*
X63096Y10403D01*
X63447Y10447D01*
X63766Y10504D01*
X64050Y10576D01*
X64302Y10662D01*
X64519Y10761D01*
X64704Y10875D01*
X64855Y11002D01*
X65411Y10445D01*
D02*
G37*
G36*
X45411D02*
X45284Y10294D01*
X45171Y10110D01*
X45071Y9892D01*
X44986Y9641D01*
X44914Y9356D01*
X44856Y9038D01*
X44812Y8686D01*
X44766Y7883D01*
X44764Y7431D01*
X41841Y10354D01*
X42292Y10356D01*
X43096Y10403D01*
X43447Y10447D01*
X43766Y10504D01*
X44050Y10576D01*
X44302Y10662D01*
X44519Y10761D01*
X44704Y10875D01*
X44855Y11002D01*
X45411Y10445D01*
D02*
G37*
G36*
X35411D02*
X35284Y10294D01*
X35171Y10110D01*
X35071Y9892D01*
X34986Y9641D01*
X34914Y9356D01*
X34856Y9038D01*
X34812Y8686D01*
X34766Y7883D01*
X34764Y7431D01*
X31841Y10354D01*
X32292Y10356D01*
X33096Y10403D01*
X33447Y10447D01*
X33766Y10504D01*
X34050Y10576D01*
X34301Y10662D01*
X34519Y10761D01*
X34704Y10875D01*
X34855Y11002D01*
X35411Y10445D01*
D02*
G37*
G36*
X62990Y19101D02*
X62992Y18602D01*
X62992D01*
Y13287D01*
X65341D01*
X65532Y12825D01*
X64241Y11535D01*
X64232Y11527D01*
X64141Y11471D01*
X64004Y11409D01*
X63822Y11347D01*
X63595Y11289D01*
X63326Y11240D01*
X63023Y11203D01*
X62920Y11197D01*
X62331Y11354D01*
X61291D01*
X60285Y11085D01*
X59384Y10565D01*
X58648Y9829D01*
X58128Y8927D01*
X58071Y8715D01*
D01*
X58016Y8510D01*
X57858Y7922D01*
Y6881D01*
X58128Y5876D01*
X58648Y4975D01*
X59384Y4239D01*
X60285Y3718D01*
X61291Y3449D01*
X62331D01*
X63337Y3718D01*
X64238Y4239D01*
X64974Y4975D01*
X65494Y5876D01*
X65764Y6881D01*
Y7922D01*
X65606Y8510D01*
X65612Y8613D01*
X65650Y8916D01*
X65699Y9186D01*
X65756Y9413D01*
X65818Y9595D01*
X65880Y9731D01*
X65937Y9823D01*
X65944Y9832D01*
X69180Y13067D01*
X75067D01*
X75274Y12567D01*
X74242Y11535D01*
X74232Y11527D01*
X74141Y11471D01*
X74004Y11409D01*
X73822Y11347D01*
X73595Y11289D01*
X73326Y11240D01*
X73023Y11203D01*
X72920Y11197D01*
X72331Y11354D01*
X71291D01*
X70285Y11085D01*
X69384Y10565D01*
X68648Y9829D01*
X68128Y8927D01*
X67858Y7922D01*
Y6881D01*
X68128Y5876D01*
X68648Y4975D01*
X69384Y4239D01*
X70285Y3718D01*
X71291Y3449D01*
X72331D01*
X73337Y3718D01*
X74238Y4239D01*
X74974Y4975D01*
X75494Y5876D01*
X75764Y6881D01*
Y7922D01*
X75606Y8510D01*
X75612Y8613D01*
X75650Y8916D01*
X75699Y9186D01*
X75756Y9413D01*
X75818Y9595D01*
X75880Y9731D01*
X75937Y9823D01*
X75945Y9832D01*
X76987Y10875D01*
X79113Y13000D01*
D01*
X79131Y12992D01*
X79891D01*
X80607Y12277D01*
Y12043D01*
X80606Y12031D01*
X80581Y11926D01*
X80528Y11786D01*
X80444Y11613D01*
X80324Y11413D01*
X80168Y11187D01*
X79980Y10946D01*
X79912Y10869D01*
X79384Y10565D01*
X78648Y9829D01*
X78128Y8927D01*
X77858Y7922D01*
Y6881D01*
X78128Y5876D01*
X78648Y4975D01*
X79384Y4239D01*
X80285Y3718D01*
X81291Y3449D01*
X82331D01*
X83337Y3718D01*
X84238Y4239D01*
X84974Y4975D01*
X85494Y5876D01*
X85764Y6881D01*
Y7922D01*
X85494Y8927D01*
X85069Y9664D01*
X84974Y9829D01*
X84238Y10565D01*
X83711Y10869D01*
X83642Y10946D01*
X83454Y11187D01*
X83298Y11412D01*
X83178Y11613D01*
X83094Y11786D01*
X83041Y11926D01*
X83016Y12031D01*
X83015Y12043D01*
Y12776D01*
X83193Y12992D01*
X93284D01*
Y1847D01*
X93110Y1673D01*
X56496D01*
X1657Y1673D01*
X1280Y2051D01*
Y11417D01*
X7384D01*
X7858Y11354D01*
Y3449D01*
X15764D01*
Y11354D01*
X16238Y11417D01*
X19861D01*
X19995Y10917D01*
X19384Y10565D01*
X18648Y9829D01*
X18128Y8927D01*
X17858Y7922D01*
Y6881D01*
X18128Y5876D01*
X18648Y4975D01*
X19384Y4239D01*
X20285Y3718D01*
X21291Y3449D01*
X22331D01*
X23337Y3718D01*
X24238Y4239D01*
X24974Y4975D01*
X25494Y5876D01*
X25764Y6881D01*
Y7922D01*
X25494Y8927D01*
X24974Y9829D01*
X24238Y10565D01*
X23627Y10917D01*
X23761Y11417D01*
X29861D01*
X29995Y10917D01*
X29384Y10565D01*
X28648Y9829D01*
X28128Y8927D01*
X27858Y7922D01*
Y6881D01*
X28128Y5876D01*
X28648Y4975D01*
X29384Y4239D01*
X30285Y3718D01*
X31291Y3449D01*
X32331D01*
X33337Y3718D01*
X34238Y4239D01*
X34974Y4975D01*
X35494Y5876D01*
X35764Y6881D01*
Y7922D01*
X35606Y8510D01*
X35612Y8613D01*
X35650Y8916D01*
X35699Y9186D01*
X35756Y9413D01*
X35818Y9595D01*
X35880Y9731D01*
X35937Y9823D01*
X35945Y9832D01*
X36916Y10804D01*
X38916D01*
X39123Y10304D01*
X38648Y9829D01*
X38128Y8927D01*
X37858Y7922D01*
Y6881D01*
X38128Y5876D01*
X38648Y4975D01*
X39384Y4239D01*
X40285Y3718D01*
X41291Y3449D01*
X42331D01*
X43337Y3718D01*
X44238Y4239D01*
X44974Y4975D01*
X45494Y5876D01*
X45764Y6881D01*
Y7922D01*
X45606Y8510D01*
X45612Y8613D01*
X45650Y8916D01*
X45699Y9186D01*
X45756Y9413D01*
X45818Y9595D01*
X45880Y9731D01*
X45937Y9823D01*
X45944Y9832D01*
X47530Y11417D01*
X49713D01*
X49943Y11012D01*
X49954Y10917D01*
X49911Y10869D01*
X49384Y10565D01*
X48648Y9829D01*
X48128Y8927D01*
X47858Y7922D01*
Y6881D01*
X48128Y5876D01*
X48648Y4975D01*
X49384Y4239D01*
X50285Y3718D01*
X51291Y3449D01*
X52331D01*
X53337Y3718D01*
X54238Y4239D01*
X54528Y4528D01*
X54974Y4975D01*
X55494Y5876D01*
X55764Y6881D01*
Y7922D01*
X55494Y8927D01*
X54974Y9829D01*
X54528Y10275D01*
X54238Y10565D01*
X53711Y10869D01*
X53668Y10917D01*
X53679Y11012D01*
X53909Y11417D01*
X54528D01*
Y13907D01*
X55084Y14463D01*
X55345Y14854D01*
X55436Y15315D01*
X55436Y15315D01*
Y19685D01*
X62406D01*
X62990Y19101D01*
D02*
G37*
%LPC*%
G36*
X42331Y71354D02*
X42311D01*
Y67902D01*
X45764D01*
Y67922D01*
X45494Y68927D01*
X44974Y69829D01*
X44238Y70565D01*
X43337Y71085D01*
X42331Y71354D01*
D02*
G37*
G36*
X12331D02*
X12311D01*
Y67902D01*
X15764D01*
Y67922D01*
X15494Y68927D01*
X14974Y69829D01*
X14238Y70565D01*
X13337Y71085D01*
X12331Y71354D01*
D02*
G37*
G36*
X41311D02*
X41291D01*
X40285Y71085D01*
X39384Y70565D01*
X38648Y69829D01*
X38128Y68927D01*
X37858Y67922D01*
Y67902D01*
X41311D01*
Y71354D01*
D02*
G37*
G36*
X11311D02*
X11291D01*
X10285Y71085D01*
X9384Y70565D01*
X8648Y69829D01*
X8128Y68927D01*
X7858Y67922D01*
Y67902D01*
X11311D01*
Y71354D01*
D02*
G37*
G36*
X52331D02*
X51291D01*
X50285Y71085D01*
X49384Y70565D01*
X48648Y69829D01*
X48128Y68927D01*
X47858Y67922D01*
Y66881D01*
X48128Y65876D01*
X48648Y64974D01*
X49384Y64239D01*
X50285Y63718D01*
X51291Y63449D01*
X52331D01*
X53337Y63718D01*
X54238Y64239D01*
X54974Y64974D01*
X55494Y65876D01*
X55764Y66881D01*
Y67922D01*
X55494Y68927D01*
X54974Y69829D01*
X54238Y70565D01*
X53337Y71085D01*
X52331Y71354D01*
D02*
G37*
G36*
X45764Y66902D02*
X42311D01*
Y63449D01*
X42331D01*
X43337Y63718D01*
X44238Y64239D01*
X44974Y64974D01*
X45494Y65876D01*
X45764Y66881D01*
Y66902D01*
D02*
G37*
G36*
X41311D02*
X37858D01*
Y66881D01*
X38128Y65876D01*
X38648Y64974D01*
X39384Y64239D01*
X40285Y63718D01*
X41291Y63449D01*
X41311D01*
Y66902D01*
D02*
G37*
G36*
X32331Y71354D02*
X31291D01*
X30285Y71085D01*
X29384Y70565D01*
X28648Y69829D01*
X28128Y68927D01*
X27858Y67922D01*
Y66881D01*
X28128Y65876D01*
X28648Y64974D01*
X29384Y64239D01*
X30285Y63718D01*
X31291Y63449D01*
X32331D01*
X33337Y63718D01*
X34238Y64239D01*
X34974Y64974D01*
X35494Y65876D01*
X35764Y66881D01*
Y67922D01*
X35494Y68927D01*
X34974Y69829D01*
X34238Y70565D01*
X33337Y71085D01*
X32331Y71354D01*
D02*
G37*
G36*
X22331D02*
X21291D01*
X20285Y71085D01*
X19384Y70565D01*
X18648Y69829D01*
X18128Y68927D01*
X17858Y67922D01*
Y66881D01*
X18128Y65876D01*
X18648Y64974D01*
X19384Y64239D01*
X20285Y63718D01*
X21291Y63449D01*
X22331D01*
X23337Y63718D01*
X24238Y64239D01*
X24974Y64974D01*
X25494Y65876D01*
X25764Y66881D01*
Y67922D01*
X25494Y68927D01*
X24974Y69829D01*
X24238Y70565D01*
X23337Y71085D01*
X22331Y71354D01*
D02*
G37*
G36*
X15764Y66902D02*
X12311D01*
Y63449D01*
X12331D01*
X13337Y63718D01*
X14238Y64239D01*
X14974Y64974D01*
X15494Y65876D01*
X15764Y66881D01*
Y66902D01*
D02*
G37*
G36*
X11311D02*
X7858D01*
Y66881D01*
X8128Y65876D01*
X8648Y64974D01*
X9384Y64239D01*
X10285Y63718D01*
X11291Y63449D01*
X11311D01*
Y66902D01*
D02*
G37*
G36*
X40701Y25386D02*
X35539D01*
Y23963D01*
X38878D01*
X39614Y24109D01*
X40238Y24526D01*
X40654Y25150D01*
X40701Y25386D01*
D02*
G37*
G36*
X34539D02*
X29377D01*
X29424Y25150D01*
X29841Y24526D01*
X30465Y24109D01*
X31201Y23963D01*
X34539D01*
Y25386D01*
D02*
G37*
G36*
X62024Y18815D02*
X59949D01*
Y16445D01*
X62024D01*
Y18815D01*
D02*
G37*
G36*
X58949D02*
X56874D01*
Y16445D01*
X58949D01*
Y18815D01*
D02*
G37*
G36*
X62024Y15445D02*
X59949D01*
Y13075D01*
X62024D01*
Y15445D01*
D02*
G37*
G36*
X58949D02*
X56874D01*
Y13075D01*
X58949D01*
Y15445D01*
D02*
G37*
%LPD*%
D10*
X65354Y15945D02*
Y19291D01*
D12*
X46949Y48917D02*
X54232Y56201D01*
X58563D01*
X61760Y59398D01*
X69685Y54134D02*
X71811Y56260D01*
X55216Y54134D02*
X69685D01*
X47343Y46260D02*
X55216Y54134D01*
X56398Y52067D02*
X71358D01*
X48130Y43799D02*
X56398Y52067D01*
X38976Y43799D02*
X48130D01*
X71358Y52067D02*
X81811Y62520D01*
X72835Y48917D02*
X77264Y53347D01*
X62598Y48917D02*
X72835D01*
X74311Y20374D02*
Y20649D01*
X75285Y21623D02*
Y27467D01*
X74311Y20649D02*
X75285Y21623D01*
Y27467D02*
X75295Y27477D01*
Y33169D01*
X74016Y34449D02*
X75295Y33169D01*
X69095Y34449D02*
X74016D01*
X68209Y33563D02*
X69095Y34449D01*
X62598Y33563D02*
X68209D01*
X68588Y28445D02*
X69867Y27165D01*
X62598Y28445D02*
X68588D01*
X69867Y27165D02*
X69980D01*
X40846Y31004D02*
X42913Y33071D01*
X29528Y31004D02*
X40846D01*
X27953Y34843D02*
Y37894D01*
Y34843D02*
X29232Y33563D01*
X35039D01*
X81811Y7402D02*
Y12776D01*
X80512Y14075D02*
Y42224D01*
Y14075D02*
X81811Y12776D01*
X76378Y46358D02*
X80512Y42224D01*
X78937Y14528D02*
Y40748D01*
X75886Y43799D02*
X78937Y40748D01*
X71811Y7402D02*
X78937Y14528D01*
X74902Y36122D02*
X77264Y33760D01*
X75768Y14272D02*
X77264Y15768D01*
Y33760D01*
X51811Y12894D02*
X54232Y15315D01*
Y36417D01*
X56496Y38681D01*
X62598D01*
X41811Y7402D02*
X52756Y18347D01*
Y38681D02*
X55315Y41240D01*
X52756Y18347D02*
Y38681D01*
X51279Y19587D02*
Y35531D01*
X43701Y12008D02*
X51279Y19587D01*
X36417Y12008D02*
X43701D01*
X55315Y41240D02*
X62598D01*
X45571D02*
X51279Y35531D01*
X38976Y41240D02*
X45571D01*
X42815Y13386D02*
X49803Y20374D01*
X45768Y38681D02*
X49803Y34646D01*
Y20374D02*
Y34646D01*
X38976Y38681D02*
X45768D01*
X45965Y36122D02*
X48228Y33858D01*
Y21063D02*
Y33858D01*
X42323Y15157D02*
X48228Y21063D01*
X43504Y28445D02*
X45669Y30610D01*
X38976Y36122D02*
X45965D01*
X35039Y28445D02*
X43504D01*
X62598Y36122D02*
X74902D01*
X66535Y46358D02*
X76378D01*
X62598Y31004D02*
X69882D01*
X39961Y46260D02*
X47343D01*
X61760Y59398D02*
Y67351D01*
X38976Y48917D02*
X46949D01*
X61760Y67351D02*
X61811Y67402D01*
X29559Y28445D02*
X35039D01*
X66535Y43799D02*
X75886D01*
X68681Y14272D02*
X75768D01*
X61811Y7402D02*
X68681Y14272D01*
X81811Y62520D02*
Y67402D01*
X71811Y56260D02*
Y67402D01*
X23524Y13386D02*
X42815D01*
X51811Y7402D02*
Y12894D01*
X31811Y7402D02*
X36417Y12008D01*
X21811Y11673D02*
X23524Y13386D01*
X21811Y7402D02*
Y11673D01*
X11811Y11614D02*
X15354Y15157D01*
X11811Y7402D02*
Y11614D01*
X20571Y39961D02*
X29528Y31004D01*
X20602Y37402D02*
X29559Y28445D01*
X16535Y39961D02*
X20571D01*
X15354Y15157D02*
X42323D01*
X16535Y37402D02*
X20602D01*
D13*
X65354Y15945D02*
D03*
X59449D02*
D03*
D14*
X35039Y48917D02*
D03*
Y46358D02*
D03*
Y43799D02*
D03*
Y41240D02*
D03*
Y38681D02*
D03*
Y36122D02*
D03*
Y33563D02*
D03*
Y31004D02*
D03*
Y28445D02*
D03*
Y25886D02*
D03*
X62598Y48917D02*
D03*
Y46358D02*
D03*
Y43799D02*
D03*
Y41240D02*
D03*
Y38681D02*
D03*
Y36122D02*
D03*
Y33563D02*
D03*
Y31004D02*
D03*
Y28445D02*
D03*
Y25886D02*
D03*
D15*
X5906Y21654D02*
D03*
Y53150D02*
D03*
D16*
X16535Y39961D02*
D03*
Y32283D02*
D03*
Y34843D02*
D03*
Y37402D02*
D03*
Y42520D02*
D03*
D17*
X14764Y24213D02*
D03*
Y50591D02*
D03*
D18*
X5906Y42126D02*
D03*
Y32677D02*
D03*
D24*
X62303Y22343D02*
X65354Y19291D01*
X62303Y22343D02*
Y25795D01*
D25*
X62394Y25886D01*
X62598D01*
X5906Y15650D02*
Y21654D01*
X16535Y32283D02*
X21752D01*
D26*
X14764Y23228D02*
Y24213D01*
X8465D02*
X14764D01*
X5906Y21654D02*
X8465Y24213D01*
X5906Y53150D02*
X8465Y50591D01*
X14764D01*
X5906Y42126D02*
Y53150D01*
Y32677D02*
Y42126D01*
Y21654D02*
Y32677D01*
D27*
X21654Y42520D02*
X21654Y42520D01*
X16535Y42520D02*
X21654D01*
D28*
X87087Y17559D02*
D03*
D29*
Y27559D02*
D03*
Y37559D02*
D03*
Y47559D02*
D03*
Y57559D02*
D03*
X21811Y7402D02*
D03*
X31811D02*
D03*
X41811D02*
D03*
X51811D02*
D03*
X61811D02*
D03*
X71811D02*
D03*
X81811D02*
D03*
X71811Y67402D02*
D03*
X61811D02*
D03*
X51811D02*
D03*
X41811D02*
D03*
X31811D02*
D03*
X21811D02*
D03*
X11811D02*
D03*
D30*
Y7402D02*
D03*
X81811Y67402D02*
D03*
D31*
X57087Y59744D02*
D03*
X77264Y53347D02*
D03*
X85446Y11740D02*
D03*
X3457Y2980D02*
D03*
X4934Y9476D02*
D03*
X90564Y11543D02*
D03*
X91154Y3472D02*
D03*
X56849Y11272D02*
D03*
X42520Y22835D02*
D03*
X65354Y19291D02*
D03*
X69980Y27165D02*
D03*
X69882Y31004D02*
D03*
X5906Y15650D02*
D03*
X45768Y25197D02*
D03*
X27953Y37894D02*
D03*
X45669Y30610D02*
D03*
X42913Y33071D02*
D03*
X29232Y60630D02*
D03*
X17323Y63878D02*
D03*
X4035Y70866D02*
D03*
X3937Y61713D02*
D03*
X44094Y55709D02*
D03*
X25492Y49803D02*
D03*
X22343Y25197D02*
D03*
X36909Y3543D02*
D03*
X76181D02*
D03*
X66831D02*
D03*
X56988D02*
D03*
X21752Y32283D02*
D03*
X74311Y20374D02*
D03*
X34055Y18602D02*
D03*
X21654Y42520D02*
D03*
M02*
